<svg width="240" height="324" viewBox="0 0 240 324" fill="none" xmlns="http://www.w3.org/2000/svg">
<path fill-rule="evenodd" clip-rule="evenodd" d="M140.038 286.762C122.894 286.81 112.625 286.609 93.2322 286.328C70.7869 285.734 64.7379 286.803 52.1636 284.333C50.2411 283.924 48.7785 283.305 47.295 282.442C46.7632 283.043 45.8617 283.938 45.0057 283.346C43.4288 282.303 44.1517 278.661 43.7607 276.605C43.1134 258.496 42.0779 239.846 45.6175 221.956C43.4717 221.258 30.8979 216.083 30.2113 214.35C41.5819 184.606 66.5254 149.8 99.3435 151.111C100.004 151.925 100.591 153.13 101.323 153.959C105.785 152.287 111.979 150.612 112.284 144.177C113.057 139.882 113.614 135.872 113.986 131.925C114.053 131.473 114.594 131.318 114.927 131.126C115.068 130.105 115.393 129.062 116.097 128.362C121.849 127.845 134.978 130.218 138.423 131.196C143.124 132.001 142.635 137.047 143.51 140.872C144.898 145.601 145.864 150.509 147.927 155.129C148.394 155.193 149.701 155.421 150.183 155.505C150.208 154.982 149.963 153.428 150.443 153.111C151.332 152.217 151.537 153.918 151.734 154.472C171.157 150.803 183.858 167.291 188.114 185.708C191.196 194.97 195.28 204.343 200.612 214.396C203.955 220.637 194.349 221.797 190.323 224.288C194.478 240.462 194.978 256.933 195.66 273.235C195.84 275.742 196.085 279.152 195.197 280.4C194.776 280.727 194.483 280.718 194.056 280.742C193.231 281.632 191.818 281.573 190.628 281.827C186.865 282.511 183.01 282.968 179.388 283.038C169.221 289.332 153.546 285.812 140.038 286.762Z" fill="white"/>
<path fill-rule="evenodd" clip-rule="evenodd" d="M112.571 131.913C113.105 129.238 117.518 129.858 117.318 132.555C115.09 142.594 116.446 154.815 102.366 153.827C111.304 169.555 138.905 179.121 147.826 158.472C143.43 157.947 142.561 147.551 142.03 143.913L142.008 143.588C141.89 141.717 141.93 139.983 143.054 138.383C144.176 139.223 144.627 140.745 145.006 142.132L145.285 143.244C146.215 146.947 147.188 150.633 148.663 154.168L148.715 154.176C148.642 151.779 151.718 150.683 152.48 153.251C173.294 150.384 184.68 167.566 189.172 185.537C192.449 195.374 196.72 204.837 201.572 213.985C205.234 221.133 196.342 222.769 191.638 225.147C195.256 239.646 195.966 254.667 196.636 269.537C196.414 272.711 197.848 279.221 195.933 281.497C193.096 283.717 191.568 279.911 192.004 277.471C192.412 260.216 190.615 243.037 190.099 225.809C186.548 227.31 182.954 228.693 179.319 229.977C179.504 246.144 181.426 262.31 182.111 278.394C183.01 279.103 183.507 280.331 182.739 281.402C178.627 287.139 171.193 287.996 164.651 288.078C149.085 288.274 133.501 288.214 117.934 288.167C102.642 287.82 87.2165 288.8 72.0053 287.047C69.0243 289.287 68.4146 284.458 68.8139 282.399L68.9655 278.273C69.0675 275.523 69.1755 272.773 69.3146 270.025L69.6612 263.323C70.2415 252.155 70.8565 240.992 71.8322 229.846C62.9962 228.637 54.2871 226.492 45.8556 223.597C46.5496 242.947 45.1259 262.505 47.4999 281.757C49.0665 283.884 45.9247 285.88 44.0907 284.548C41.8162 282.813 42.7916 279.419 42.3374 276.921L42.2791 275.306C41.6425 257.892 40.7727 240.112 44.0174 222.937L42.6217 222.395C38.3673 220.733 27.4263 216.29 28.861 214.097C40.2832 184.157 65.8341 148.346 99.6743 150.047C100.532 150.642 100.969 151.802 101.605 152.633L102.612 152.267C106.511 150.84 110.745 149.03 110.861 144.229C111.599 140.138 112.184 136.046 112.571 131.913ZM168.339 206.541C173.187 199.759 139.566 210.478 137.175 211.186L136.275 211.514C121.55 216.869 105.675 222.048 93.9334 232.722C93.6866 232.993 93.9938 233.366 94.313 233.215L94.354 233.19C94.8211 232.93 96.8437 232.208 95.4108 232.482C112.377 221.778 132.087 215.899 151.347 210.756C154.146 210.079 156.958 209.457 159.781 208.89C162.629 208.198 165.843 208.206 168.339 206.541ZM115.212 204.334C115.627 202.643 118.413 187.105 113.786 191.367C112.552 193.603 112.078 196.194 111.856 198.712C111.259 201.647 112.766 204.81 111.301 207.516C109.99 211.05 105.17 215.179 104.848 208.613C112.733 208.343 110.366 198.348 104.998 201.438C102.058 203.955 101.549 208.695 103.021 212.167C100.644 209.579 96.791 209.571 94.0403 207.618C89.0727 202.246 97.4163 196.656 101.96 194.721C102.215 194.44 105.94 193.141 105.151 192.984C101.584 193.017 98.01 193.776 94.932 195.653C88.5615 198.762 86.3932 208.388 93.6807 211.762C95.2565 212.521 96.9811 212.93 98.5413 213.714C102.473 215.753 101.203 218.315 97.1438 218.39C95.4743 218.755 89.9651 217.226 90.582 220.153C91.5786 221.983 93.7487 222.256 95.6499 222.307C100.731 222.655 107.05 219.784 104.178 213.804C107.645 216.759 111.973 212.628 113.459 209.419C115.269 212.97 119.82 211.9 122.388 209.799C126.312 212.89 131.236 209.454 132.984 205.617C133.02 206.415 133.055 207.213 133.094 208.012C133.173 209.648 135.708 210.174 136.083 208.417C136.653 205.745 137.439 203.103 138.52 200.592C141.007 193.991 142.528 196.968 142.614 202.141C142.921 204.083 143.893 205.823 146.039 205.954C146.637 205.99 147.417 205.458 147.511 204.833L147.634 204.006C147.896 202.273 148.198 200.488 148.853 198.859C149.483 204.25 156.54 204.224 158.508 199.754C162.59 202.205 166.873 198.781 168.776 195.24L168.833 195.133C169.498 193.922 167.808 192.457 166.842 193.596L166.507 193.945C164.685 195.832 161.786 198.567 159.39 196.238C159.47 195.187 159.438 194.114 159.373 193.08C159.296 191.848 157.595 190.751 156.628 191.853C155.265 190.695 153.572 190.862 152.146 191.67C148.453 192.714 146.127 196.31 145.326 199.884C145.241 197.028 144.307 193.93 141.17 193.661C137.957 193.634 136.727 197.227 135.631 199.646C135.568 198.563 135.507 197.48 135.451 196.396C135.357 194.533 132.772 194.552 132.561 196.341L132.555 196.397C132.148 200.264 130.007 209.527 124.604 207.714C126.882 205.204 131.003 197.553 127.085 195.17C121.055 193.652 117.963 203.167 120.534 207.595L120.401 207.689C118.932 208.703 116.504 209.831 115.684 207.559L115.591 207.35C115.17 206.389 114.798 205.348 115.212 204.334ZM106.587 203.261C107.729 202.595 108.135 204.802 107.844 205.543C107.377 206.732 106.103 207.394 104.834 207.847L104.838 207.713C104.894 206.355 105.347 203.987 106.587 203.261ZM125.805 197.75C125.831 197.909 125.789 198.104 125.783 198.251C125.588 200.854 124.431 203.353 122.821 205.383C121.895 202.624 123.089 198.978 125.805 197.75ZM153.253 194.496C153.993 194.301 154.777 194.355 155.54 194.562C155.485 195.429 155.673 196.297 156.05 197.093C154.082 203.008 149.453 198.455 153.253 194.496Z" fill="black"/>
<path fill-rule="evenodd" clip-rule="evenodd" d="M151.142 69.0519C137.247 57.7539 114.98 54.0855 100.106 65.4838C88.5493 76.1809 83.7666 106.579 85.8119 121.853C86.3806 131.65 93.8627 142.755 104.846 139.656C106.711 139.473 108.522 138.758 110.404 138.608C112.656 138.348 114.924 138.344 117.171 138.662C122.068 139.354 126.408 141.955 131.16 143.171C139.978 145.427 149.817 143.909 157.408 138.828C182.491 122.33 171.129 85.0194 151.142 69.0519Z" fill="white"/>
<path fill-rule="evenodd" clip-rule="evenodd" d="M149.292 143.442C149.55 143.353 149.807 143.261 150.063 143.166C150.08 143.225 150.107 143.282 150.139 143.337C150.175 143.426 150.211 143.512 150.251 143.599C149.93 143.601 149.609 143.544 149.292 143.442ZM148.777 33.9586C148.663 33.703 148.531 33.4579 148.383 33.221C148.743 33.3374 149.102 33.498 149.427 33.7052C149.208 33.7791 148.992 33.8637 148.777 33.9586ZM93.8914 67.3859C93.8766 67.3834 93.862 67.3813 93.8475 67.3788C94.0359 66.8768 94.3716 66.403 94.7424 66.0608C94.8089 65.9993 94.881 65.9424 94.9507 65.8837C94.5571 66.3527 94.2001 66.8529 93.8914 67.3859ZM194.317 119.875C194.131 118.112 193.895 116.356 193.588 114.61C193.295 112.938 193.048 111.15 192.196 109.667C191.351 108.189 190.504 106.754 189.498 105.454C189.642 104.791 189.832 104.167 189.997 103.664C190.948 100.769 191.884 97.0912 189.908 94.4007C189.45 93.7773 188.89 93.2996 188.25 92.8684C187.977 92.6846 187.525 92.5176 187.316 92.264C187.168 92.0843 187.219 92.1816 187.212 92.0928C187.176 91.6151 188.296 90.607 188.558 90.2287C189.048 89.5289 189.414 88.7408 189.693 87.9355C190.795 84.7484 190.045 81.2378 189.382 78.0441C189.032 76.3514 188.645 74.6543 188.518 72.9254C188.4 71.3023 188.621 69.7171 188.752 68.1024C188.879 66.5086 188.846 64.8645 188.163 63.3891C187.829 62.6705 187.325 62.0365 186.71 61.5419C186.11 61.0581 185.362 60.777 184.777 60.2951C184.193 59.8152 184.36 59.1665 184.513 58.5029C184.721 57.6025 184.986 56.7085 185.011 55.7786C185.057 54.1575 184.396 52.5785 183.363 51.3529C182.298 50.0869 180.777 49.2307 179.133 49.0384C178.381 48.9496 177.642 49.0999 176.894 49.0471C176.155 48.9964 175.994 48.6265 175.855 47.9502C175.534 46.401 175.664 44.8708 174.902 43.4252C174.226 42.1402 173.024 41.2692 171.695 40.7558C169.259 39.8132 166.426 40.0076 163.857 40.5633C162.34 36.0998 157.605 33.1726 152.947 33.1366C152.22 31.9023 150.988 30.9809 149.584 30.4396C147.26 29.5413 144.798 30.0657 142.377 30.0657H142.367C142.124 30.0507 141.881 30.0446 141.638 30.0467C141.41 30.0338 141.181 30.0148 140.953 29.9896C138.198 29.6639 135.473 28.5353 132.743 29.6409C131.526 30.1333 130.559 30.8921 129.946 31.8601C129.023 32.1114 128.112 32.399 127.219 32.7329C123.346 32.8342 119.51 34.9118 117.551 38.2788C114.794 37.966 111.803 38.4965 109.979 40.7495C109.504 41.3358 109.136 42.0245 108.893 42.7558C107.034 43.3573 105.313 44.4291 104.187 46.0434C103.16 47.5165 102.963 49.4212 103.657 51.0025C101.998 52.2053 100.701 53.9272 100.076 55.9603C99.6964 57.1957 99.64 58.472 99.8842 59.6879C98.185 60.065 96.5597 60.7639 95.1197 61.8128C93.6106 62.9117 91.7259 64.6606 91.6266 66.6735C91.6192 66.8212 91.6249 66.9689 91.6368 67.1163C88.3146 66.8827 84.9271 67.4458 82.6816 70.1102C80.9954 72.1094 80.2625 74.6839 80.7125 77.0277C76.7597 77.8309 73.0222 79.8979 70.4151 82.954C68.5203 85.1753 66.8365 87.9989 66.9377 91.0231C66.9694 91.9343 67.183 92.8515 67.5527 93.6991V93.701C67.3942 93.9992 67.2313 94.331 67.075 94.6839C64.6264 96.3978 62.8475 99.0843 61.8461 102.045C61.0372 104.444 60.528 107.559 61.3919 110.001C61.5231 110.372 61.69 110.723 61.8844 111.049C61.7215 111.222 61.5675 111.395 61.4175 111.571C59.7673 113.5 58.0961 115.931 58.2104 118.587C58.2569 119.657 58.6539 120.733 59.3027 121.616C57.0208 123.931 55.183 126.851 55.3644 130.113C55.5208 132.951 57.078 135.834 59.518 137.197C59.1104 139.385 59.6555 141.692 61.3581 143.4C62.2076 144.254 63.2088 144.816 64.2696 145.116C64.5062 147.693 66.7919 149.766 69.2194 150.362C69.6717 150.474 70.1238 150.542 70.5736 150.573C72.7581 151.645 75.363 151.522 77.5919 150.539C78.2489 151.374 79.1046 152.055 80.1018 152.543C80.5053 152.742 80.9323 152.907 81.3778 153.04C84.5257 153.972 87.7541 152.708 90.5067 151.233C90.5954 151.186 90.7581 151.127 90.9018 151.062C91.282 151.486 91.975 151.907 92.3363 152.114C93.5618 152.818 95.0597 153.145 96.4668 153.053C98.1168 152.943 99.5722 152.397 100.92 151.622C101.117 151.656 101.315 151.675 101.514 151.685C102.782 151.753 103.912 151.351 104.928 150.717C105.6 150.806 106.288 150.797 106.986 150.675C108.522 151.066 110.017 150.444 111.219 149.457C111.752 149.02 112.202 148.506 112.684 148.016C113.184 147.507 113.565 147.388 114.15 147.046C115.534 146.237 115.7 144.184 115.1 142.7C115.214 142.441 115.28 142.151 115.28 141.83C115.276 139.027 113.985 136.457 112.401 134.215C111.693 133.215 110.924 132.236 110.081 131.349C109.402 130.637 108.45 129.481 107.446 129.191C107.385 129.147 107.321 129.102 107.258 129.06C107.453 128.379 107.567 127.686 107.518 126.978C107.467 126.251 107.233 125.562 106.857 124.975C108.118 122.529 108.651 119.847 108.397 117.049C109.424 115.593 110.201 113.984 110.602 112.222C110.85 111.131 110.991 109.984 110.972 108.865C110.964 108.329 110.767 107.65 110.763 107.094C110.793 107.27 111.021 106.615 111.11 106.452C112.128 104.56 113.436 103.085 113.653 100.855C113.78 99.5511 113.471 98.1099 112.69 97.0405C113.19 95.0665 113.184 92.9464 112.396 91.0635C112.185 90.5605 111.942 90.0681 111.663 89.601C111.792 89.2079 111.91 88.8105 112.062 88.4531C112.122 88.3115 112.181 88.168 112.24 88.0243C112.812 87.519 113.345 86.9675 113.793 86.4263C114.786 85.2281 115.544 83.8544 115.639 82.2711C115.686 81.4786 115.5 80.7198 115.27 79.9676C115.168 79.6273 115.107 79.249 114.986 78.9172C114.919 78.7331 114.756 78.5452 114.699 78.3719C114.686 78.3339 114.676 78.3022 114.667 78.2768C114.676 78.2515 114.682 78.1986 114.682 78.0991C114.684 77.3403 114.783 76.5985 114.788 75.8674C115.483 76.5691 116.32 77.093 117.27 77.3997C119.186 78.0147 121.185 77.7358 122.881 76.7868C124.707 78.038 126.758 79.1706 128.909 79.6252C130.187 79.8956 131.467 79.7838 132.75 79.9507C134.024 80.1177 135.255 80.6735 136.455 81.1068C139.126 82.0727 141.79 83.0637 144.469 84.0044C146.632 84.7632 148.973 85.3655 151.238 84.9386C151.874 85.919 152.7 86.7477 153.758 87.3564C154.517 87.7897 155.349 88.0833 156.209 88.2293C156.969 88.3582 157.861 88.3075 158.478 88.8295C159.08 89.3368 159.456 90.0932 159.997 90.6641C160.599 91.3023 161.343 91.8561 162.122 92.2534C162.748 92.5726 163.386 92.8027 164.034 92.953C163.977 94.3965 163.922 95.8379 163.905 97.2836C163.874 100.424 163.886 103.565 163.844 106.706C163.802 109.835 163.703 112.966 163.538 116.092C163.381 119.025 163.162 121.969 162.462 124.831C160.143 134.327 151.453 141.126 141.726 141.473C138.839 141.576 135.98 141.17 133.219 140.321C130.358 139.439 127.804 137.626 124.871 137.068C124.105 136.924 123.382 137.696 123.821 138.437C124.578 139.712 125.497 140.49 126.754 141.257C128.07 142.058 129.536 142.652 130.983 143.172C133.645 144.127 136.462 144.681 139.286 144.835C141.441 144.953 143.605 144.806 145.715 144.4C145.863 144.854 146.125 145.296 146.324 145.717C146.353 145.778 146.453 145.736 146.434 145.672C146.402 145.567 146.381 145.474 146.372 145.397C147.082 146.323 148.179 146.963 149.305 147.274C150.099 147.494 150.942 147.561 151.76 147.469C152.024 147.439 152.275 147.395 152.525 147.34C153.357 148.069 154.421 148.555 155.49 148.798C155.307 149.914 155.858 151.131 157.136 151.448C157.673 151.582 158.188 151.584 158.704 151.535C159.12 151.73 159.568 151.882 160.044 151.985C160.662 152.121 161.402 151.947 161.869 151.499C162.124 151.679 162.363 151.803 162.6 152.089C163.574 153.264 165.674 152.328 165.767 150.969C166.075 150.969 166.386 150.973 166.696 150.983C166.77 151.017 166.844 151.051 166.92 151.087C168.279 151.719 169.686 152.271 171.188 151.774C171.464 151.683 171.718 151.567 171.948 151.432C173.007 151.527 174.05 151.529 175.124 151.182C175.758 150.977 176.353 150.652 176.85 150.225C178.506 150.711 180.253 150.931 181.901 150.328C183.135 149.878 184.128 149.168 184.827 148.231C185.896 148.27 186.982 148.012 187.96 147.503C189.633 146.636 190.806 144.989 191.624 143.339C193.424 139.697 194.489 135.785 194.907 131.751C195.319 127.777 194.731 123.825 194.317 119.875Z" fill="black"/>
<path fill-rule="evenodd" clip-rule="evenodd" d="M143.152 128.274C141.732 127.695 140.465 126.728 139.538 125.493C139.216 125.063 139.133 124.61 139.2 124.195C139.276 123.729 139.552 123.306 139.928 123.023C140.305 122.739 140.777 122.598 141.233 122.67C141.63 122.732 142.024 122.949 142.337 123.399L142.402 123.489C142.953 124.235 143.67 124.846 144.488 125.241C145.276 125.621 146.158 125.798 147.07 125.695C148.808 125.499 150.005 124.559 151.278 123.282C151.436 123.121 151.594 122.955 151.752 122.786C151.852 122.633 151.991 122.534 152.146 122.483C152.317 122.425 152.511 122.429 152.689 122.491C152.86 122.55 153.013 122.664 153.116 122.815C153.213 122.958 153.269 123.135 153.251 123.339C153.134 124.661 152.443 125.842 151.461 126.769C150.37 127.799 148.924 128.511 147.563 128.761C146.064 129.036 144.536 128.839 143.152 128.274ZM148.271 107.866C149.866 108.836 152.297 111.098 150.581 113.503C148.56 115.624 145.652 113.193 144.218 112.093C142.889 111.241 141.396 113.433 142.629 114.428C152.986 122.099 157.19 108.12 149.078 106.726C148.184 106.572 147.853 107.566 148.271 107.866ZM129.711 98.9429C129.887 96.7541 133.219 96.257 133.551 98.423C133.847 100.363 133.498 102.145 132.624 103.892C131.79 105.561 129.692 104.783 129.533 103.263C129.32 101.226 129.601 100.304 129.711 98.9429ZM155.076 97.9739C155.541 97.3652 156.211 96.9497 157.015 97.1845C159.526 97.9185 158.786 101.485 157.904 103.22C157.425 104.163 155.876 104.402 155.176 103.572C154.035 102.219 153.489 99.5157 154.939 98.1825C154.979 98.1136 155.022 98.044 155.076 97.9739ZM132.589 89.3654L132.986 89.2959C134.213 89.0836 135.738 88.8796 136.606 89.8665C137.067 90.3898 137.225 91.3624 136.606 91.8633C135.518 92.7446 134.314 92.4031 133.01 92.4777C131.935 92.5394 130.902 92.7174 129.867 93.0135C127.595 93.663 125.744 94.8486 123.804 96.1505C123.549 96.3213 123.29 95.9956 123.411 95.7574C124.531 93.563 126.701 91.7604 128.875 90.6616C130.036 90.0751 131.305 89.5885 132.589 89.3654ZM152.787 88.3823L153.091 88.4445C156.394 89.1353 160.687 90.5153 162.251 93.7615C162.311 94.2205 162.248 94.3189 162.196 94.3832L162.179 94.4046C162.137 94.4595 162.104 94.5351 161.905 94.5976C161.849 94.5844 161.794 94.5705 161.737 94.5557C161.02 94.3677 160.453 94.1087 159.904 93.84L159.308 93.5465C158.617 93.2076 157.92 92.881 157.181 92.6399C155.605 92.1255 153.983 91.7631 152.337 91.5696C151.98 91.5277 151.636 91.4072 151.365 91.2007C151.107 91.0046 150.911 90.7332 150.821 90.3724C150.705 89.9056 150.738 89.5521 150.989 89.1309C151.177 88.8146 151.447 88.5953 151.756 88.4694C152.071 88.3411 152.43 88.3108 152.787 88.3823Z" fill="black"/>
</svg>
