<svg width="240" height="324" viewBox="0 0 240 324" fill="none" xmlns="http://www.w3.org/2000/svg">
<path fill-rule="evenodd" clip-rule="evenodd" d="M170.479 181.122C168.644 180.468 166.876 179.712 165.265 178.601C160.62 175.142 157.592 169.938 154.731 165.007C150.7 157.835 147.829 150.193 145.844 142.221C144.991 138.796 144.701 134.824 142.764 131.788C138.371 125.429 125.49 126.253 118.65 127.369C114.07 128.18 113.123 133.308 112.083 137.102C111.217 140.255 110.65 143.443 110.174 146.674C109.041 147.419 107.763 148.024 106.544 148.551C93.2644 152.625 90.9303 160.177 85.858 171.843C77.2909 188.8 54.0441 195.439 50.5326 215.506C48.2701 228.755 54.7039 241.219 61.337 252.233C67.5145 264.263 76.1386 270.037 89.8729 267.195C102.755 264.304 115.135 259.468 127.791 255.731C133.92 254.224 140.04 250.302 146.488 251.669C159.773 254.654 173.423 256.058 187.039 255.67C206.155 256.444 206.152 238.089 204.19 223.875C202.816 201.755 191.663 187.551 170.479 181.122Z" fill="white"/>
<path fill-rule="evenodd" clip-rule="evenodd" d="M171.757 213.13C173.354 214.187 174.698 215.789 175.776 217.475C171.274 217.007 166.779 216.467 162.294 215.852C162.881 215.476 163.474 215.109 164.08 214.763C166.291 213.516 169.287 211.497 171.757 213.13ZM96.9501 226.445C96.1251 226.122 95.8059 224.863 95.4843 224.142C94.4761 221.88 93.5561 219.579 92.5988 217.295C96.2335 216.259 99.768 215.109 103.533 214.556C107.582 213.963 111.69 213.819 115.776 213.953C124.052 214.223 132.251 215.576 140.388 217.027C148.515 218.476 156.642 219.868 164.826 220.961C172.845 222.031 180.888 222.815 188.947 223.503C190.512 223.636 193.123 224.2 194.382 222.967C195.379 221.991 195.412 220.19 194.164 219.397C193.387 218.902 192.261 218.895 191.373 218.781C190.255 218.637 189.133 218.541 188.008 218.466C187.55 218.436 187.092 218.408 186.633 218.38C190.313 216.992 194.156 216.236 198.145 216.447C198.371 217.818 199.387 219.228 199.943 220.359C200.915 222.333 201.672 224.331 202.169 226.477C203.208 230.964 203.253 235.62 202.96 240.196C202.69 244.011 202.111 248.232 199.12 250.934C196.855 252.98 193.659 253.737 190.694 253.975C187.249 254.252 183.75 253.957 180.333 253.495C175.54 252.846 170.726 251.989 166.027 250.84C156.928 248.615 148.206 245.075 140.159 240.274C136.235 237.934 132.49 235.3 128.512 233.049C124.458 230.754 120.145 228.973 115.616 227.868C110.547 226.631 105.249 226.103 100.039 226.408C99.1354 226.461 97.8294 226.789 96.9501 226.445ZM91.0764 224.148C91.609 225.877 92.0166 227.851 93.1534 229.304C94.2794 230.744 95.9782 231.252 97.7381 231.38C99.8601 231.534 102.007 231.435 104.134 231.514C108.495 231.676 112.797 232.385 116.967 233.685C120.852 234.897 124.459 236.787 127.934 238.883C131.147 240.822 134.265 242.904 137.479 244.837C136.624 245.229 135.778 245.653 134.928 246.023C133.144 246.798 131.35 247.545 129.547 248.274C125.993 249.711 122.423 251.114 118.817 252.416C111.546 255.043 104.155 257.338 96.6748 259.293C93.1073 260.226 89.4892 261.315 85.7829 261.47C82.4964 261.607 79.4523 260.678 76.8017 258.723C71.3041 254.669 66.9302 248.817 63.3944 243.044C61.2938 239.614 59.4606 236.011 57.9444 232.285C57.1775 230.401 56.482 228.488 55.856 226.552C55.5623 225.643 55.2839 224.729 55.0202 223.811C54.9042 223.408 54.7931 223.003 54.683 222.597C60.3047 220.881 65.993 219.332 71.8149 218.472C74.9233 218.013 78.0731 217.78 81.2155 217.814C82.7753 217.831 84.3342 217.915 85.8858 218.076C86.7209 218.163 87.5527 218.274 88.3809 218.413C88.7231 218.469 89.0749 218.553 89.4277 218.615C89.9666 220.463 90.51 222.309 91.0764 224.148ZM207.282 216.803C207.585 216.19 207.713 215.586 207.822 214.919C207.905 214.41 208.124 213.693 207.932 213.032C207.716 212.292 207.129 211.629 206.708 210.998C206.242 210.3 205.777 209.602 205.313 208.903C204.384 207.506 203.457 206.107 202.532 204.708C198.753 198.993 195 193.261 191.241 187.533C187.905 182.45 184.625 177.321 181.188 172.306C178.248 168.018 175.044 163.8 171.021 160.465C165.934 156.248 159.876 154.262 153.549 152.712C152.858 151.994 151.935 151.602 150.948 151.682C149.554 150.1 148.447 148.996 147.944 146.984C147.704 146.021 147.779 143.314 146.841 142.744C145.727 142.067 145.146 142.963 144.838 143.973C143.811 147.353 144.99 151.897 147.705 155.282C146.561 159.236 145.045 164.857 142.339 168.025C139.443 171.417 135.436 172.473 131.114 172.543C122.87 172.675 114.636 169.61 108.348 164.299C106.437 162.685 104.662 160.881 103.057 158.964C101.852 157.525 100.427 155.305 99.4851 153.627C99.4851 152.973 98.7133 152.289 106.571 151.761C114.429 151.232 115.025 140.469 115.199 139.004C115.341 137.815 115.945 135.968 115.107 134.998C114.752 134.586 114.022 134.52 113.571 134.8C112.721 135.328 112.442 136.679 112.174 137.596C111.8 138.88 110.576 146.854 108.257 147.777C107.171 148.209 105.926 148.217 104.778 148.297C103.36 148.396 101.938 148.469 100.526 148.634C100.005 148.695 99.4365 148.863 98.9225 148.868C98.588 148.872 98.243 148.709 97.9198 148.595C96.8288 148.209 95.7387 148.498 94.6147 148.65C84.6775 149.986 74.4456 153.035 65.9696 158.521C58.4987 163.357 53.2354 170.311 49.7624 178.442C46.2188 186.74 44.1877 195.714 42.4855 204.547C41.9153 207.507 41.4173 210.481 40.9895 213.464C40.5761 216.347 40.0589 219.295 39.9351 222.207C39.8861 223.359 40.1613 224.43 40.5849 225.482C41.062 226.667 42.1895 227.134 43.271 227.687C45.645 228.902 48.1494 229.844 50.7296 230.511C52.3059 233.38 53.6324 236.361 54.6985 239.454C54.303 240.238 54.2947 241.409 54.2187 242.171C54.03 244.068 53.9493 245.975 53.9324 247.881C53.8984 251.701 54.128 255.518 54.308 259.332C54.4906 263.2 55.0973 278.464 55.1962 280.328C55.2731 281.776 55.1696 283.801 55.9321 285.087C57.1037 287.062 59.9956 286.996 61.335 285.394C94.6147 292.551 157.171 290.395 182.366 286.794C185.644 286.326 184.615 286.845 185.448 286.017C186.074 285.395 186.606 284.329 186.779 283.473C187.01 282.33 186.637 281.296 185.983 280.371C185.295 279.399 185.17 277.824 184.915 276.668C184.311 273.935 184.01 261.933 183.728 260.602C183.64 260.188 183.555 259.75 183.453 259.312C188.074 259.749 192.889 259.749 197.286 258.203C199.779 257.326 202.105 255.949 203.894 253.982C206.062 251.601 207.267 248.603 207.887 245.474C208.687 241.439 208.857 237.26 208.7 233.158C208.482 228.311 207.678 223.395 205.683 218.944C206.34 218.334 206.89 217.599 207.282 216.803Z" fill="black"/>
<path fill-rule="evenodd" clip-rule="evenodd" d="M162.508 74.7506C155.542 64.8794 138.036 63.7675 126.972 63.83C105.122 63.648 100.547 88.7722 99.4064 106.378C97.0758 106.774 94.8095 107.587 93.2717 109.419C91.3991 111.65 90.7523 115.48 92.5078 117.975C93.674 119.632 95.5151 120.185 97.4411 120.278C103.819 119.669 105.127 125.356 108.269 129.621C116.33 140.515 130.295 144.049 143.103 144.103C147.453 144.219 152.694 144.546 155.48 140.451C164.28 125.192 164.471 104.955 165.014 87.6635C165.088 83.2366 165.069 78.5502 162.508 74.7506Z" fill="white"/>
<path fill-rule="evenodd" clip-rule="evenodd" d="M123.934 33.3541C124.721 32.1634 126.449 31.7018 127.647 32.585C128.645 31.9674 129.9 32.0976 130.797 32.8486C131.881 32.2075 133.227 32.4662 134.078 33.36C135.44 32.6152 137.238 33.1654 137.968 34.5766C139.343 34.424 140.639 35.3243 141.005 36.6275C141.07 36.6801 141.134 36.7345 141.198 36.7886C142.022 36.8281 142.804 37.151 143.266 37.9174C143.497 38.3001 143.603 38.7499 143.588 39.1906C144.08 39.4569 144.478 39.8937 144.648 40.4599C144.808 40.9908 144.748 41.516 144.538 41.9736C145.224 42.7034 145.405 43.8409 144.919 44.7575C145.12 45.1024 145.225 45.5101 145.208 45.9339C145.184 46.5614 144.893 47.0672 144.497 47.4989C144.995 48.3972 144.801 49.5495 143.992 50.1793C143.528 51.827 142.352 52.9233 140.55 53.5958C139.645 53.9335 138.698 54.1937 137.734 54.3847C141.595 54.9044 145.393 55.8179 149.042 57.1798C149.24 57.254 149.408 57.2251 149.537 57.1386L149.778 57.2631C150.783 57.8147 151.768 58.4129 152.727 59.0533C152.727 58.9476 152.729 58.8419 152.733 58.7341C152.715 57.8644 152.806 57.0078 153.037 56.1821C152.735 55.7701 152.509 55.3005 152.386 54.8165C152.079 53.6089 152.663 51.8904 153.712 51.4778C154.079 50.4579 154.915 49.7198 155.94 49.4294C156.021 49.3561 156.108 49.2849 156.204 49.2187C156.42 49.0703 156.656 48.9691 156.899 48.9103C157.025 48.3577 157.333 47.8489 157.844 47.492C158.566 46.9879 159.419 46.9332 160.169 47.2081C160.311 47.1602 160.456 47.1185 160.602 47.0824C161.809 46.0548 163.69 46.1305 164.751 47.3328C165.48 46.9995 166.339 46.9847 167.085 47.4332C167.682 47.7921 168.054 48.3708 168.199 49.0059C169.33 49.0405 170.364 49.7908 170.69 50.9106C171.731 51.0285 172.583 51.8439 172.764 52.8702C173.429 52.9628 174.042 53.2751 174.416 53.8963C174.588 54.1835 174.682 54.4978 174.706 54.8125C175.042 54.9738 175.343 55.2179 175.571 55.5368C175.969 56.0956 176.046 56.7481 175.9 57.362L176.002 57.5653C176.111 57.7961 176.198 58.0436 176.275 58.2949C176.625 58.8003 176.787 59.418 176.755 60.0386C176.83 60.3011 176.902 60.5642 176.961 60.8286C177.198 61.8663 177.287 62.9717 177.124 64.0284C177.044 64.5399 176.928 65.0429 176.763 65.5311C176.746 65.6241 176.718 65.7108 176.687 65.7932C176.596 66.1779 176.48 66.5562 176.332 66.9261C175.977 67.3974 175.605 67.856 175.214 68.2998C174.885 68.7944 174.509 69.2509 174.084 69.6694C173.778 69.9716 173.442 70.2527 173.085 70.5063C172.376 71.0746 171.583 71.5178 170.737 71.8061C170.586 71.7744 170.434 71.7497 170.282 71.7254C169.321 72.2546 167.809 72.3144 166.884 72.3108C165.866 72.307 164.933 72.0496 164.157 71.5633C164.247 71.7423 164.337 71.9215 164.426 72.1012C164.404 72.1141 164.38 72.1257 164.361 72.1407C164.193 71.8628 164.006 71.6159 163.785 71.4384C163.484 71.1955 162.998 71.1738 162.79 71.5667C162.786 71.5734 162.782 71.5804 162.779 71.5874C162.667 71.7968 162.683 71.9978 162.768 72.1618C162.799 72.2064 162.83 72.2514 162.861 72.2963C162.872 72.3089 162.882 72.3225 162.894 72.3343C163.177 72.5672 163.461 73.1362 163.73 73.6893C163.912 74.0124 164.086 74.3402 164.248 74.6737C164.343 74.8136 164.511 74.9364 164.691 74.9722C164.655 75.2385 164.778 75.5138 164.979 75.6504C165.032 75.5439 165.096 75.4348 165.179 75.3224C166.087 74.0885 167.871 73.5561 169.214 74.12C169.482 74.0748 169.751 74.0374 170.023 74.016C170.91 73.9575 171.809 74.0272 172.685 74.2109C172.957 74.374 173.216 74.5577 173.459 74.7671C173.663 74.9447 173.854 75.1307 174.031 75.323C174.168 75.4259 174.303 75.535 174.436 75.6487C174.973 75.9376 175.367 76.4918 175.699 77.0434C175.961 77.4152 176.191 77.8102 176.39 78.2286C177.311 79.8053 178.374 81.7628 177.543 83.3131C177.632 83.4803 177.697 83.6654 177.733 83.8668C177.848 84.5062 177.612 84.995 177.303 85.4697C177.344 85.8007 177.366 86.1215 177.384 86.4037C177.482 87.988 177.119 90.1596 175.723 90.8063C175.701 90.8325 175.679 90.8585 175.656 90.8845C175.548 91.0599 175.384 91.2117 175.168 91.3224C175.114 91.3598 175.06 91.3953 175.005 91.4258C174.98 91.4471 174.952 91.4645 174.927 91.4847L175.013 91.3911C174.241 91.6993 173.495 91.7629 172.698 91.6693C172.206 91.8472 171.713 91.9801 171.296 92.0831C169.997 92.4041 168.321 92.6611 167.055 92.1137C166.686 91.9544 166.379 91.7432 166.149 91.4915C166.168 92.4722 166.197 93.4526 166.24 94.4333C166.326 96.9124 166.322 99.3895 166.303 101.871C166.282 104.663 166.204 107.457 166.054 110.247C165.984 111.648 165.872 113.047 165.722 114.442C165.595 115.801 165.447 117.158 165.276 118.51C164.873 121.292 164.207 124.094 163.396 126.783C163.043 127.949 162.656 129.131 162.217 130.285C162.031 130.815 161.835 131.339 161.621 131.859C160.495 134.584 159.092 137.213 157.197 139.483C156.162 140.721 155.019 141.835 153.743 142.771C152.718 143.57 151.609 144.246 150.39 144.779C147.771 145.925 144.847 146.182 142.013 146.14C140.911 146.125 139.74 145.927 138.65 145.745C137.813 145.608 136.966 145.424 136.128 145.208C135.384 145.035 134.649 144.834 133.924 144.599C133.052 144.369 132.215 144.037 131.418 143.608L130.007 143.078C129.418 142.856 128.845 142.592 128.29 142.289L126.756 141.573C126.12 141.266 125.501 140.93 124.897 140.56C124.833 140.527 124.761 140.47 124.734 140.406C124.578 140.32 124.419 140.237 124.263 140.148C124.237 140.136 124.256 140.062 124.29 139.99C124.263 139.933 124.267 139.869 124.343 139.812C124.4 139.768 124.491 139.781 124.586 139.81C124.578 139.804 124.571 139.798 124.565 139.791C124.459 139.734 124.356 139.679 124.252 139.622C124.147 139.565 124.13 139.417 124.229 139.339C124.256 139.318 124.288 139.307 124.32 139.305C124.318 139.305 124.316 139.303 124.313 139.303C124.294 139.29 124.309 139.231 124.337 139.166C124.284 139.098 124.267 139.016 124.36 138.944C124.497 138.836 124.818 139.035 124.935 139.1C125.068 139.174 125.203 139.244 125.336 139.316C125.344 139.297 125.361 139.28 125.389 139.263C125.192 139.159 124.998 139.054 124.804 138.948C124.683 138.884 124.527 138.751 124.685 138.627C124.812 138.525 125.14 138.698 125.296 138.787C125.315 138.772 125.336 138.766 125.361 138.762C125.294 138.724 125.222 138.688 125.154 138.648C124.964 138.542 125.093 138.212 125.29 138.322L125.359 138.365C125.501 138.352 125.699 138.468 125.79 138.519C126.452 138.935 127.14 139.299 127.854 139.612C128.336 139.84 128.82 140.066 129.306 140.286C129.783 140.522 130.275 140.727 130.78 140.901C132.05 141.395 133.332 141.856 134.628 142.283C136.442 142.78 138.321 143.179 140.205 143.336C140.45 143.355 140.695 143.371 140.94 143.38C141.477 143.376 142.013 143.374 142.548 143.369C143.59 143.262 144.631 143.156 145.671 143.05C146.034 142.999 146.389 142.936 146.74 142.862C146.923 142.818 147.107 142.771 147.289 142.718C147.352 142.71 147.416 142.697 147.479 142.687C147.925 142.568 148.362 142.427 148.799 142.262C149.074 142.15 149.347 142.031 149.617 141.907C150.511 141.49 151.39 140.941 152.218 140.311L155.33 137.213L156.278 135.919C157.504 134.167 158.473 132.214 159.278 130.221L160.559 126.531C160.692 126.087 160.818 125.643 160.939 125.197C161.182 124.2 161.425 123.202 161.668 122.207C161.748 121.841 161.826 121.478 161.902 121.114C162.369 118.851 162.627 116.553 162.849 114.256C163.254 110.075 163.364 105.882 163.394 101.685C163.413 99.176 163.392 96.6673 163.341 94.1607C163.311 92.7066 163.29 91.2525 163.269 89.7984C163.242 88.2555 163.212 86.7106 163.172 85.1677C163.17 85.1339 163.182 85.1043 163.199 85.0789C163.195 84.8972 163.193 84.7154 163.191 84.5315C163.189 84.4111 163.235 84.3582 163.303 84.3477C163.29 83.2465 163.282 82.1475 163.28 81.0485C163.28 80.9766 163.313 80.9301 163.358 80.9026V80.6237C163.174 79.8586 162.925 79.1083 162.602 78.3939C162.492 78.1361 162.369 77.8846 162.234 77.6394C162.067 77.2716 161.849 76.9377 161.583 76.6313C161.361 76.2572 161.089 75.9253 160.772 75.6295C160.643 75.5365 160.512 75.4435 160.383 75.3505C160.275 75.2934 160.117 75.1941 159.978 75.0799C159.726 74.9257 159.477 74.7693 159.225 74.615C159.08 74.5389 159.175 74.3487 159.278 74.298C159.255 74.281 159.23 74.2684 159.202 74.2451C158.898 73.9577 158.581 73.6871 158.252 73.4335C158.192 73.4568 158.123 73.4483 158.07 73.4039C157.875 73.2222 157.677 73.0468 157.474 72.8777C157.02 72.5797 156.544 72.307 156.048 72.0661C155.252 71.6899 154.436 71.3665 153.599 71.0918C153.419 71.0324 153.237 70.9793 153.057 70.9259C152.799 70.9136 152.542 70.8996 152.285 70.8884C142.712 70.4683 133.114 70.6448 123.562 71.4156C121.209 71.6056 118.859 71.8319 116.513 72.0942C114.449 72.3252 111.974 72.3172 110.076 73.2632C109.996 73.3033 109.919 73.3458 109.845 73.3896C109.993 74.3394 110.38 75.2668 110.718 76.1623C111.238 77.5437 111.704 78.9517 111.658 80.4476C111.625 81.4908 111.401 82.4939 111.078 83.4741C110.913 84.8718 110.478 86.2217 110.015 87.5479C107.741 94.0732 106.502 100.754 106.63 107.681C106.633 107.866 106.59 108.028 106.517 108.166C106.558 108.469 106.6 108.772 106.649 109.074C106.838 110.241 105.3 110.822 104.769 110.048C104.733 110.083 104.684 110.107 104.638 110.111C104.503 110.124 104.281 109.902 104.218 109.801C104.135 109.648 104.049 109.5 103.956 109.359C103.943 109.353 103.932 109.348 103.922 109.344C103.979 109.462 104.038 109.583 104.093 109.697C104.186 109.883 103.829 109.974 103.723 109.803C103.628 109.653 103.533 109.509 103.438 109.372C103.383 109.412 103.322 109.422 103.282 109.357C102.942 108.795 102.549 108.313 102.118 107.903C101.44 107.349 100.698 107.013 99.855 106.816C99.1917 106.721 98.5114 106.717 97.8543 106.793C97.1001 106.882 96.3057 107.07 95.6233 107.414C95.0677 107.797 94.51 108.18 93.9522 108.562C93.8149 108.706 93.6839 108.856 93.5614 109.012C93.1747 109.513 92.8642 110.048 92.6086 110.616C92.598 110.652 92.5874 110.688 92.5769 110.722C92.4205 111.2 92.3191 111.69 92.2747 112.193C92.2684 112.829 92.2642 113.463 92.2578 114.099C92.3424 114.926 92.5536 115.729 92.8769 116.492C93.029 116.942 93.2677 117.344 93.5909 117.699C93.7642 117.999 93.9607 118.271 94.1804 118.525C94.6262 118.821 95.1121 119.073 95.6297 119.271C95.7564 119.305 95.8832 119.339 96.0121 119.364C96.6776 119.62 97.3663 119.757 98.0783 119.776C98.9783 119.838 99.8593 119.759 100.721 119.542C101.254 119.447 101.769 119.292 102.268 119.079C102.745 118.838 103.195 118.548 103.616 118.21C103.662 118.181 103.732 118.198 103.808 118.236C103.901 118.168 103.994 118.102 104.085 118.028C104.127 117.999 104.165 118.035 104.184 118.073C104.192 118.066 104.201 118.06 104.209 118.054C104.376 117.94 104.835 118.297 104.628 118.508C104.716 118.563 104.805 118.629 104.885 118.696C105.253 118.711 105.994 119.387 105.855 119.493C105.648 119.673 105.43 119.838 105.209 119.994C105.405 120.14 105.663 120.366 105.542 120.457C105.327 120.662 105.092 120.839 104.843 120.992C104.674 121.12 104.501 121.243 104.319 121.355C104.123 121.471 103.922 121.571 103.715 121.664C104.076 122.363 104.421 123.069 104.742 123.788C104.955 124.297 105.202 124.79 105.487 125.263C105.851 125.984 106.286 126.66 106.795 127.29C107.209 127.987 107.695 128.628 108.251 129.213C108.937 129.995 109.675 130.731 110.459 131.411C110.771 131.633 111.09 131.849 111.422 132.047C112.269 132.686 113.171 133.233 114.128 133.689C114.24 133.751 114.329 133.886 114.198 133.992C114.194 133.994 114.19 133.994 114.185 133.998C114.498 134.176 114.813 134.351 115.13 134.524C115.254 134.592 115.51 134.723 115.32 134.877C115.197 134.979 114.819 134.797 114.593 134.679C114.625 134.696 114.659 134.715 114.692 134.734C114.762 134.772 115.163 134.975 114.916 135.103C114.792 135.125 114.673 135.103 114.559 135.042C114.441 134.998 114.323 134.949 114.206 134.898C114.211 134.936 114.19 134.972 114.128 135.002C114.08 135.01 114.033 135.01 113.987 135.006C114.244 135.152 114.502 135.296 114.762 135.437C114.838 135.478 115.197 135.676 114.961 135.799C114.844 135.822 114.732 135.803 114.625 135.744C114.428 135.67 114.234 135.583 114.046 135.488C114.002 135.463 113.957 135.439 113.913 135.414C113.879 135.414 113.845 135.41 113.811 135.404C114.018 135.516 114.228 135.623 114.439 135.729C114.563 135.797 114.773 135.934 114.593 136.074C114.468 136.169 114.132 135.997 113.934 135.885C113.921 135.9 113.906 135.917 113.885 135.934C113.737 136.046 113.357 135.799 113.237 135.733C112.189 135.171 111.177 134.59 110.203 133.924C109.607 133.542 109.026 133.14 108.458 132.702C107.37 131.861 106.381 130.883 105.475 129.851C104.856 129.145 104.52 128.748 103.92 127.892C102.956 126.514 102.23 125.077 101.53 123.553C101.52 123.53 101.541 123.471 101.573 123.412C101.429 123.059 101.29 122.701 101.15 122.332C100.787 122.38 100.421 122.414 100.06 122.435C99.2086 122.484 98.3825 122.408 97.5818 122.232C96.6121 122.107 95.6529 121.833 94.8036 121.402C94.2945 121.146 93.8043 120.873 93.3395 120.569C92.9233 120.347 92.5219 120.093 92.1374 119.797C90.5001 118.546 89.6107 116.604 89.3931 114.588C89.2262 113.7 89.1902 112.787 89.2895 111.906C89.3614 111.265 89.505 110.631 89.7142 110.02C90.1008 108.666 90.8212 107.412 91.8649 106.463C92.0402 106.284 92.224 106.113 92.4205 105.952C93.0015 105.476 93.6607 105.094 94.3621 104.815C94.4973 104.749 94.6346 104.688 94.7719 104.631L94.605 104.246C94.5459 104.263 94.3409 104.229 94.3156 104.158C94.248 103.974 94.1846 103.786 94.1191 103.602C94.0811 103.625 94.0325 103.638 93.9797 103.64V103.853C93.9818 103.914 93.8656 104.295 93.8022 104.096C93.7367 103.914 93.6776 103.728 93.6142 103.545C93.5614 103.511 93.5212 103.471 93.5064 103.424C93.5001 103.405 93.4938 103.386 93.4853 103.367C93.4811 103.365 93.4747 103.365 93.4705 103.363V103.428C93.4726 103.469 93.367 103.773 93.348 103.714C92.9825 102.708 92.6846 101.68 92.4522 100.636C92.2938 100.062 92.1691 99.4803 92.074 98.8907C91.9705 98.3602 91.8797 97.8276 91.8015 97.2907C91.7952 97.2464 91.7888 97.202 91.7825 97.1576L91.7762 97.128C91.7698 97.0709 91.7635 97.0118 91.755 96.9547C91.6705 96.3481 91.6008 95.7394 91.548 95.1265C91.436 93.8669 91.3917 92.6009 91.4043 91.337C91.3769 91.3476 91.3515 91.3624 91.324 91.3751C90.7752 91.6088 90.1952 91.7999 89.6052 91.952C88.59 93.4197 86.9694 94.4128 85.0272 94.5172C84.3695 94.5527 83.68 94.4726 83.0415 94.2868C82.9752 94.302 82.9067 94.3143 82.8357 94.3236C82.3154 94.3917 81.9535 94.1797 81.4669 94.115C80.688 94.0119 80.0276 93.9611 79.5235 93.5086C79.3678 93.5122 79.219 93.4896 79.0777 93.4473C77.741 93.768 76.3207 93.0612 75.8506 91.5801C75.0488 91.11 74.41 90.4128 73.9805 89.6037C73.1531 88.5427 72.4917 87.2419 72.0814 85.8751C72.075 85.8622 72.0681 85.8497 72.0619 85.8364C71.8538 85.385 71.7547 84.9008 71.7463 84.4151C71.5249 83.0316 71.5832 81.6464 72.0043 80.4288C71.9865 79.7688 72.1416 79.0808 72.4255 78.4567C72.7697 77.6998 73.2945 76.8297 73.9754 76.325C73.9771 75.5494 74.3102 74.6955 74.7469 74.1168C75.6184 72.9609 76.8822 72.3499 78.25 72.2616C78.9455 70.478 81.0528 70.0614 82.8706 70.6551C83.6257 69.8833 84.7317 69.5147 85.8355 69.6459C86.7689 69.7569 87.5667 70.2035 88.2271 70.8189C88.4012 70.8686 88.5746 70.9204 88.7478 70.9743C89.3261 70.7204 90.0007 70.6629 90.6178 70.8221C91.6874 71.0979 92.3852 71.9086 92.868 72.8386C93.022 72.9447 93.1724 73.0542 93.3193 73.1685C93.4805 73.2408 93.6269 73.3374 93.7597 73.4511C93.9528 73.554 94.1168 73.7233 94.2167 73.9689C94.4893 74.25 94.7428 74.5473 94.9671 74.8663C95.1351 74.4776 95.3083 74.0917 95.4873 73.7085C95.7786 73.7962 96.1308 73.6827 96.2774 73.2934C97.207 70.8259 98.899 66.3049 100.493 64.2216C98.6326 65.4891 96.3607 66.1572 94.1039 66.09C94.0074 66.087 93.91 66.083 93.8117 66.0777C92.5986 66.2869 91.3663 66.3064 90.235 66.0794C89.4731 65.8027 88.7307 65.473 88.0114 65.1C87.8364 65.0091 87.663 64.9136 87.4902 64.8172C87.4147 64.7536 87.3448 64.6826 87.2728 64.6145C87.124 64.6253 86.9683 64.6137 86.8027 64.5697C86.1801 64.4051 85.604 63.9906 85.2427 63.458C85.1755 63.3589 85.1214 63.2568 85.0733 63.1539C84.6814 62.7705 84.3419 62.3362 84.0924 61.8283C83.7987 61.2344 83.6191 60.5665 83.6001 59.8987C83.4776 59.2435 83.486 58.5693 83.7142 57.9437C83.7395 57.876 83.7691 57.8105 83.7966 57.7429C83.8093 57.7006 83.8177 57.6562 83.8325 57.614C83.8993 57.391 83.9842 57.1923 84.0873 57.0042C84.1255 56.8108 84.1881 56.6191 84.2764 56.4325C84.2863 56.3423 84.2986 56.252 84.3131 56.1622C83.6417 54.8951 83.8796 53.2382 84.8846 52.2083C84.7456 51.5425 84.8871 50.8366 85.2921 50.2459C85.5896 49.8118 86.0031 49.4692 86.4714 49.2314C86.5202 49.2067 86.6495 49.1642 86.8042 49.1154C86.9774 48.9621 87.1602 48.8171 87.3602 48.6895C87.4101 47.3912 88.7658 46.6688 89.8674 46.029C90.5819 45.6141 90.8941 44.8277 91.63 44.4299C92.4349 43.9952 93.4648 43.9692 94.3545 43.862C96.4517 43.6093 98.685 43.414 100.793 43.6424C101.963 43.7692 102.932 44.3346 103.333 45.2607C104.34 45.3797 105.237 46.1064 105.947 46.8537C106.833 47.7864 107.587 48.7793 107.847 50.0049C108.021 50.0986 108.178 50.2131 108.32 50.3425C108.315 51.2043 108.202 52.0677 107.965 52.8812C108.034 53.3675 107.888 53.8318 107.64 54.2529C107.678 54.6515 107.651 55.0439 107.568 55.4352C108.049 56.2901 107.599 57.582 106.924 58.4298C106.922 58.5891 106.92 58.7485 106.919 58.9078C106.959 58.8869 106.998 58.8622 107.035 58.8311C110.096 56.2248 113.243 56.5965 116.963 55.1052C120.317 54.4574 123.741 54.0451 127.177 53.9079C127.132 53.9012 127.086 53.8963 127.041 53.8889C125.31 53.6053 123.647 52.8928 122.216 51.8692C121.838 51.7733 121.479 51.6023 121.157 51.3164C120.845 51.0386 120.629 50.7182 120.505 50.3746C120.448 50.3139 120.392 50.2528 120.337 50.1907C119.263 49.9269 118.446 48.9976 118.583 47.776C117.903 46.971 117.653 45.977 117.883 44.942C117.503 44.3002 117.47 43.4909 117.753 42.8131C117.156 42.0877 117.11 41.058 117.578 40.2374C117.15 39.6297 117.056 38.8245 117.583 38.1048C117.832 37.765 118.177 37.5507 118.553 37.4471C118.659 37.0555 118.874 36.6918 119.213 36.4109C119.388 36.2665 119.57 36.1594 119.757 36.0795C119.827 35.6752 120.055 35.2918 120.495 34.9902C120.694 34.8534 120.898 34.7651 121.101 34.7161C121.293 34.2405 121.628 33.8235 122.099 33.5528C122.669 33.2262 123.33 33.1829 123.934 33.3541ZM96.8169 110.221C97.2585 110.215 97.6831 110.219 98.1057 110.263C98.1226 110.251 98.1395 110.244 98.1543 110.247C98.224 110.263 98.2874 110.278 98.355 110.295C98.5895 110.329 98.824 110.378 99.0627 110.447C99.6268 110.614 100.191 110.878 100.679 111.206C101.139 111.515 101.598 111.836 101.999 112.221C102.141 112.341 102.274 112.472 102.401 112.607C102.606 112.776 102.804 112.95 102.994 113.121C103.227 113.334 103.453 113.554 103.668 113.782C104.006 114.173 104.27 114.609 104.461 115.089C104.537 115.243 104.444 115.336 104.287 115.308C104.218 115.298 104.123 115.247 104.025 115.179C104.04 115.215 104.057 115.247 104.072 115.283C104.154 115.446 104.085 115.562 103.897 115.501C103.886 115.494 103.875 115.488 103.867 115.482C103.964 115.655 104.053 115.833 104.129 116.019C104.211 116.183 104.137 116.298 103.951 116.234C103.854 116.179 103.761 116.116 103.673 116.046C103.713 116.135 103.755 116.221 103.791 116.312C103.875 116.479 103.778 116.566 103.613 116.528C103.472 116.45 103.341 116.357 103.218 116.249C103.199 116.234 103.182 116.217 103.166 116.202C103.22 116.34 103.117 116.424 102.98 116.397C102.785 116.359 102.42 116.031 102.331 115.858C102.325 115.847 102.32 115.837 102.314 115.826C102.211 115.756 102.099 115.659 102.014 115.566C101.947 115.663 101.816 115.735 101.756 115.617C101.579 115.133 101.302 114.719 100.924 114.37C100.708 114.055 100.447 113.787 100.14 113.565C99.9754 113.425 99.8043 113.292 99.6289 113.165C99.3183 113.024 98.9951 112.916 98.6571 112.844C98.5895 112.823 98.5198 112.81 98.4522 112.791C98.3022 112.764 98.1543 112.736 98.0043 112.715C97.3937 112.631 96.781 112.616 96.1683 112.671C96.0585 112.675 95.9529 112.59 95.9064 112.493C95.7691 112.5 95.6338 112.506 95.4965 112.519C95.2705 112.527 95.3191 112.208 95.4902 112.176C95.7057 112.136 95.9212 112.106 96.1324 112.081C96.1282 112.062 96.1261 112.041 96.1303 112.024C95.7437 112.005 95.3592 112.013 94.9705 112.054C94.8014 112.062 95.0021 111.749 95.0951 111.732C95.1374 111.724 95.1796 111.72 95.224 111.711C95.2198 111.705 95.2176 111.701 95.2155 111.694H95.205C94.9726 111.705 94.8141 111.335 95.093 111.284C95.1627 111.272 95.2303 111.263 95.2979 111.25C95.2852 111.215 95.2831 111.183 95.2958 111.153C95.1754 111.151 95.0571 111.151 94.9367 111.151C95.0022 111.147 95.0507 110.864 95.1289 110.853C95.1902 110.845 95.2536 110.836 95.3148 110.828C95.3191 110.75 95.4374 110.568 95.4881 110.557C95.8895 110.49 96.2824 110.443 96.6712 110.428C96.7092 110.34 96.7641 110.221 96.8169 110.221Z" fill="black"/>
<path fill-rule="evenodd" clip-rule="evenodd" d="M148.319 128.112C146.762 128.563 145.092 128.603 143.505 128.137C142.066 127.715 140.589 126.785 139.53 125.555C138.589 124.462 137.98 123.134 138.004 121.717C138.007 121.555 138.064 121.42 138.153 121.315C138.249 121.202 138.383 121.124 138.526 121.091C138.674 121.056 138.83 121.068 138.963 121.129C139.083 121.183 139.186 121.276 139.25 121.412C139.413 121.626 139.575 121.836 139.738 122.041C141.046 123.658 142.314 124.866 144.281 125.299C145.349 125.534 146.415 125.43 147.394 125.071C148.441 124.687 149.388 124.012 150.129 123.148C150.465 122.757 150.86 122.598 151.248 122.595C151.686 122.592 152.12 122.796 152.446 123.122C152.767 123.442 152.982 123.878 153.002 124.333C153.019 124.732 152.888 125.15 152.542 125.522C151.4 126.749 149.92 127.648 148.319 128.112ZM148.271 107.866C149.866 108.836 152.297 111.098 150.58 113.503C148.56 115.624 145.652 113.193 144.218 112.093C142.889 111.241 141.396 113.433 142.629 114.428C152.986 122.099 157.189 108.12 149.077 106.726C148.184 106.572 147.853 107.566 148.271 107.866ZM133.347 103.598C132.834 103.27 132.231 103.157 131.562 103.461C131.04 103.699 130.124 104.491 129.486 105.533C129.05 106.245 128.74 107.081 128.805 107.952C128.82 108.154 128.745 108.303 128.627 108.413C128.534 108.5 128.4 108.564 128.242 108.584C128.108 108.601 127.958 108.586 127.836 108.548C127.604 108.475 127.481 108.325 127.435 108.202C126.989 107.016 127.181 105.692 127.681 104.498C128.357 102.886 129.583 101.536 130.386 101.101C131.761 100.356 133.383 100.322 134.76 101.081C135.932 101.727 136.665 102.77 137.394 103.833C137.549 104.059 137.702 104.283 137.861 104.504C138.18 104.945 138.211 105.383 138.088 105.759C137.951 106.175 137.603 106.526 137.167 106.71C136.765 106.88 136.297 106.903 135.884 106.729C135.534 106.581 135.214 106.294 135.011 105.807C134.669 104.985 134.1 104.079 133.347 103.598ZM159.389 105.425C159.038 105.608 158.763 105.663 158.373 105.546C158.158 105.481 157.945 105.357 157.778 105.19C157.613 105.025 157.494 104.82 157.448 104.592C157.334 104.029 157.026 103.502 156.587 103.159C156.212 102.865 155.739 102.71 155.215 102.798C154.648 102.892 154.109 103.256 153.737 103.684C153.613 103.827 153.516 103.99 153.418 104.152C153.235 104.454 153.057 104.735 152.804 104.957C152.708 105.042 152.564 105.1 152.425 105.1C152.368 105.1 152.31 105.091 152.255 105.074C151.692 104.508 151.583 104.079 151.601 103.653C151.62 103.206 151.796 102.754 152.081 102.332C152.748 101.343 154.015 100.531 154.869 100.348C156.04 100.096 157.202 100.398 158.134 101.052C159.093 101.725 159.804 102.77 160.025 103.947C160.079 104.231 160.056 104.537 159.948 104.802C159.843 105.062 159.659 105.284 159.389 105.425ZM135.928 93.0475C135.226 93.7322 134.394 93.8382 133.553 93.9325C133.086 93.9855 132.713 94.0281 132.346 94.111C131.337 94.3388 130.339 94.682 129.429 95.1763C128.478 95.693 127.441 96.3162 126.695 97.1145C126.518 97.3044 126.351 97.5037 126.183 97.7035C126.031 97.8857 125.884 98.061 125.729 98.2301C125.551 98.4243 125.382 98.6279 125.214 98.8309C125.11 99.0022 125.089 99.0444 125.068 99.0882C125.037 99.1541 125 99.2279 124.958 99.307C124.901 99.4154 124.834 99.534 124.764 99.6416C124.647 99.8382 124.584 99.8923 124.53 99.9165C124.439 99.9566 124.354 99.9764 124.271 99.9657C124.194 99.9557 124.121 99.9184 124.048 99.8573C123.688 99.5525 123.581 99.0522 123.592 98.5212C123.609 97.7153 123.906 96.8232 124.18 96.2747C124.817 95.0003 125.7 93.6755 126.762 92.7244C127.974 91.6387 129.299 90.8168 130.822 90.2504C131.769 89.8983 132.864 89.5751 133.895 89.6159C134.637 89.6453 135.346 89.866 135.931 90.4171C136.29 90.7554 136.463 91.2366 136.463 91.7175C136.463 92.208 136.283 92.7013 135.928 93.0475ZM160.817 99.3172C160.773 99.3904 160.711 99.4409 160.642 99.4712C160.57 99.503 160.489 99.5122 160.412 99.4991C160.335 99.4862 160.262 99.4513 160.204 99.398C160.149 99.3469 160.106 99.2791 160.087 99.1961C159.621 97.1469 158.715 95.6223 156.782 94.6392C155.832 94.1555 154.738 93.8482 153.703 93.6032C153.403 93.532 153.085 93.4859 152.765 93.4392C151.762 93.2926 150.751 93.1248 150.097 92.3137C149.703 91.8251 149.538 91.2003 149.632 90.6288C149.72 90.0908 150.034 89.5974 150.605 89.3018C152.028 88.5661 153.795 89.288 155.231 89.903C155.338 89.9486 155.443 89.9934 155.545 90.0366C156.95 90.6297 158.231 91.4127 159.284 92.5323C160.119 93.4206 160.893 94.7338 161.205 96.0847C161.465 97.2085 161.404 98.3559 160.817 99.3172Z" fill="black"/>
<path fill-rule="evenodd" clip-rule="evenodd" d="M166.084 109.758C164.662 111.67 162.025 112.279 159.593 112.068C154.347 111.563 152.696 105.603 152.524 100.97C156.041 101.96 152.226 94.9489 164.251 94.1779C168.49 93.8246 167.322 96.3857 169.195 98.257C169.156 102.184 168.503 106.452 166.084 109.758ZM141.098 105.245C138 119.755 121.04 116.304 119.259 103.224C120.904 102.063 120.47 99.1943 122.514 98.1551C125.753 96.0847 129.803 96.1733 133.481 96.2219C138.183 96.5451 139.523 98.4935 141.938 100.619C141.822 102.039 141.487 103.722 141.098 105.245ZM172.803 91.7749C172.629 91.7459 172.455 91.7187 172.281 91.6931C172.145 91.616 171.986 91.5566 171.8 91.5208C171.376 91.4133 170.956 91.3408 170.536 91.3017C164.508 89.9446 150.563 91.8715 149.987 97.0174C148.068 97.6585 146.407 97.0844 144.182 97.1415C142.488 90.0602 113.21 91.0597 111.802 95.329C111.797 95.3275 111.792 95.3262 111.786 95.3245C110.433 94.9056 108.439 95.0066 106.89 94.9403C103.583 94.871 100.273 95.1658 97.038 95.8635C90.9799 96.8266 82.7119 97.9541 86.9252 105.522C86.9261 105.523 86.9267 105.525 86.9277 105.526L86.9284 105.526C87.6545 106.27 88.8868 105.671 88.9327 104.663C87.5161 101.077 90.7156 100.647 93.1773 99.6164C99.3025 97.415 105.539 97.1098 111.874 97.7908C112.35 98.3521 113.074 98.8416 113.838 99.0977C118.074 99.8011 115.841 102.944 118.519 103.401C118.027 114.358 131.324 120.339 139.029 113.136C142.105 110.128 142.839 105.671 143.552 101.653C143.929 101.568 144.169 101.362 144.309 101.089C145.216 100.183 145.786 99.3465 147.579 99.0977C149.373 98.8492 150.753 99.3482 150.94 99.501C150.987 99.5959 151.038 99.691 151.096 99.7861C151.178 99.9279 151.29 100.041 151.417 100.13C149.645 111.041 158.112 117.941 166.66 112.282C170.374 108.787 171.159 103.436 171.314 98.6598C171.818 98.3559 172.136 97.7669 171.962 97.0263C171.722 96.0055 172.285 95.1216 173.182 94.6778C174.348 94.1014 174.142 91.9966 172.803 91.7749Z" fill="black"/>
</svg>
