<svg width="407" height="238" viewBox="0 0 407 238" fill="none" xmlns="http://www.w3.org/2000/svg">
<path fill-rule="evenodd" clip-rule="evenodd" d="M145.244 210.317C148.237 210.172 147.033 204.924 146.818 202.996C144.448 195.956 145.006 188.276 144.073 180.897C143.493 174.009 142.747 167.142 142.119 160.259C140.886 146.288 132.035 117.845 121.934 113.271C120.662 107.674 115.407 102.451 108.757 102.451C104.222 97.0697 98.7636 93.2828 91.7624 94.0474C88.8691 94.1793 86.0632 97.2552 83.2909 97.8492C81.7387 98.0637 67.9631 97.5115 65.2037 99.1542C63.2815 100.143 61.5464 101.972 62.1115 104.299C63.0133 107.119 60.2109 104.068 54.3651 107.077C42.4446 114.253 49.5678 123.854 49.8834 124.151C42.4446 134.525 35.9427 142.942 32.9343 155.622C30.9846 165.037 31.2041 174.755 29.5705 184.218C28.9937 187.499 28.1089 190.668 27.1514 193.854C26.1136 198.024 25.6091 208.417 25.0371 208.51C23.9951 208.769 25.6392 210.913 26.7433 210.915C57.3524 216.004 88.4438 211.126 119.217 210.329C127.89 210.027 136.572 209.957 145.244 210.317Z" fill="white"/>
<path fill-rule="evenodd" clip-rule="evenodd" d="M98.851 125.067C98.8653 124.926 99.0543 124.926 99.0688 125.067L99.2849 127.158C99.5479 129.712 99.801 132.261 99.9845 134.826C100.213 138.026 100.366 141.225 100.44 144.431C100.697 155.6 100.748 166.774 100.77 177.945C102.277 177.84 103.784 177.74 105.293 177.642C106.316 177.576 107.339 177.512 108.362 177.45L110.972 177.291L112.046 177.225C112.772 177.18 113.597 176.997 114.104 177.642C114.308 177.9 114.409 178.235 114.22 178.541C113.783 179.248 113.112 179.223 112.353 179.254C111.637 179.283 110.921 179.311 110.204 179.339C108.67 179.399 107.135 179.455 105.6 179.498C103.989 179.543 102.378 179.58 100.768 179.608C100.751 184.324 100.557 189.034 100.346 193.745L100.251 195.864C99.9935 201.597 99.7164 207.335 99.3228 213.06C99.2905 213.529 98.6289 213.528 98.5969 213.06C98.1536 206.613 97.8612 200.152 97.5712 193.695C97.3609 189.014 97.2385 184.332 97.1803 179.649C96.9673 179.651 96.7545 179.654 96.5417 179.655C90.497 179.681 84.4538 179.707 78.4091 179.65C78.4192 179.662 78.4291 179.674 78.4357 179.69C78.8731 180.725 78.9148 182.046 78.9041 183.157C78.8919 184.431 78.7207 185.689 78.428 186.928C77.3792 191.367 74.674 195.342 71.593 198.629L71.4924 198.736C70.7657 199.505 69.9319 200.279 69.4857 201.259C69.0299 202.26 68.8717 203.431 68.6468 204.507L68.6205 204.63L67.741 208.702C67.4616 209.995 67.3823 211.881 66.361 212.814C65.4082 213.685 64.1458 213.23 63.6974 212.109C63.3473 211.234 63.6961 210.274 63.9034 209.399L65.5284 202.553C65.7954 201.436 66.0871 200.312 66.6633 199.309C67.2536 198.282 68.119 197.537 69.002 196.775C70.674 195.332 72.2089 193.681 73.507 191.892C74.8046 190.104 75.9136 188.133 76.6913 186.061C77.0806 185.024 77.3997 183.946 77.6198 182.86C77.8291 181.829 77.8272 180.761 78.051 179.741C78.0663 179.67 78.1257 179.622 78.1936 179.6C78.1775 179.555 78.2022 179.494 78.2657 179.489L83.2092 179.171C87.6036 178.887 91.9978 178.596 96.3882 178.263L97.164 178.206C97.1038 171.958 97.1549 165.709 97.2675 159.459C97.3707 153.727 97.3728 147.994 97.5429 142.263C97.6274 139.418 97.8098 136.581 98.0126 133.742C98.2202 130.839 98.5524 127.961 98.851 125.067ZM52.4331 158.301C52.3804 157.982 52.7799 157.785 52.964 158.076C55.0691 161.402 56.084 165.015 56.5118 168.907C56.8897 172.341 56.7784 175.826 56.5902 179.27C56.3895 182.943 56.1553 186.615 55.9185 190.287L55.5546 195.916L54.6416 210.03C54.5762 211.04 54.3476 211.958 53.4804 212.427C53.3706 212.519 53.2561 212.601 53.1228 212.673C52.6542 212.924 52.0328 212.797 51.762 212.315L51.8706 212.387C51.9652 212.447 51.8589 212.363 51.5518 212.137L51.2911 211.799C51.1017 211.513 50.9807 211.233 50.9321 210.894C50.8565 210.367 50.9544 209.788 50.9888 209.259L51.5872 200.004C52.0527 192.809 52.5962 185.616 53.0058 178.418C53.1967 175.063 53.3303 171.705 53.2399 168.344C53.1497 165.001 52.9798 161.603 52.4331 158.301ZM70.6436 96.3467L70.7604 96.3271C74.9415 95.6309 79.488 95.7612 83.3092 97.7815C83.3408 97.7981 83.3264 97.8507 83.2909 97.8491L82.061 97.7999C78.1673 97.6471 74.2857 97.5566 70.4573 98.4736L70.0653 98.5682C68.6866 98.9053 67.2468 99.318 66.1394 100.231C65.0809 101.103 64.5538 102.449 64.047 103.688L63.9792 103.852C63.465 105.075 62.8142 106.236 61.6872 107.001C60.2274 107.992 58.4717 107.871 56.7979 108.005C53.8507 108.243 51.4412 110.384 50.2424 113.004C49.5164 114.59 49.2068 116.368 49.1455 118.103C49.114 118.986 49.1095 119.904 49.2269 120.781C49.2644 121.062 49.6104 122.084 49.7868 122.059C50.1789 122.005 50.5373 122.21 50.6595 122.524C51.6278 121.586 52.624 120.676 53.6523 119.798C56.2155 117.61 58.9764 115.627 61.8839 113.923C64.1029 112.622 66.4436 111.333 68.8674 110.359C68.6753 110.355 68.4859 110.393 68.3026 110.489C68.2224 110.531 68.1426 110.43 68.206 110.363C68.9694 109.558 69.8839 109.443 70.8057 109.658C71.0025 109.595 71.1993 109.535 71.3969 109.477C71.4953 109.448 71.5442 109.584 71.464 109.637L71.2376 109.782C72.2432 110.119 73.2306 110.783 74.0123 111.307C76.2579 112.811 78.2344 114.65 80.238 116.455L80.6023 116.782C82.3659 118.36 84.1744 119.894 86.1781 121.16C87.227 121.823 88.3287 122.436 89.4843 122.892C90.4754 123.283 92.0892 123.53 92.5534 124.58C92.966 125.082 92.7936 125.723 92.3104 126.062C91.4954 126.961 89.865 126.38 88.8939 126.005C87.7231 125.554 86.5889 125.011 85.5072 124.375C83.4071 123.139 81.4707 121.603 79.6669 119.968C77.783 118.261 76.006 116.447 74.1737 114.687C73.3798 113.924 72.6043 113.143 71.8092 112.381L71.4098 112.002C71.004 111.621 70.4258 111.026 69.8077 110.666C68.6431 111.363 67.4605 112.03 66.3065 112.744C64.6955 113.741 63.1319 114.81 61.5925 115.914C58.629 118.04 55.8206 120.421 53.2134 122.972C48.4318 127.652 44.358 132.996 40.7992 138.654L40.5289 139.085C38.5066 142.324 36.5941 145.667 35.2381 149.246C33.7461 153.183 33.0205 157.324 32.6263 161.505C32.2351 165.655 32.1031 169.826 31.6659 173.972C31.2175 178.225 30.334 182.383 29.3291 186.534L29.0894 187.518C28.1802 191.236 27.2417 194.953 26.7743 198.758C26.5247 200.791 26.3747 202.851 26.4086 204.9C26.4427 206.961 26.7657 208.976 27.0264 211.015C27.1263 211.797 26.3593 212.449 25.673 212.552C24.8837 212.671 24.2056 212.166 23.9603 211.431C23.1955 209.14 23.0565 206.608 23.0806 204.203C23.1047 201.762 23.4156 199.336 23.853 196.937C24.7132 192.218 26.0407 187.596 27.1513 182.933C28.13 178.823 28.7868 174.707 29.1409 170.496C29.5085 166.128 29.7286 161.745 30.3991 157.409C31.0609 153.128 32.3062 149.038 34.1841 145.134C35.8941 141.58 38.0256 138.235 40.2603 134.992C42.9741 131.054 45.9545 127.307 49.2861 123.893C48.9869 123.88 48.6796 123.783 48.3974 123.607C47.534 123.067 47.132 122.011 47.0084 121.047C46.719 118.792 46.7889 116.437 47.3675 114.232C48.301 110.675 50.7238 107.515 54.235 106.232C55.1388 105.902 56.0995 105.782 57.0573 105.758C57.9662 105.735 58.9589 105.854 59.8358 105.565C61.2317 105.106 61.83 103.458 62.3541 102.209L62.3783 102.151C63.0503 100.559 63.857 99.195 65.3126 98.2011C66.8656 97.1405 68.8113 96.6581 70.6436 96.3467ZM110.371 102.642C111.628 102.205 113.199 102.601 114.427 102.983C115.796 103.408 117.061 104.192 118.146 105.122C119.29 106.103 120.235 107.315 120.903 108.669L120.967 108.799C121.577 110.054 122.272 111.778 121.965 113.157C121.956 113.196 121.946 113.234 121.934 113.271C124.427 114.501 126.729 116.041 128.734 117.994C131.069 120.268 133.045 122.855 134.718 125.65C141.362 136.752 142.531 150.085 143.316 162.745L143.511 165.955C143.937 172.887 144.436 179.803 145.731 186.639L145.826 187.132C147.21 194.29 149.192 201.502 148.991 208.844C148.931 211.044 145.687 211.029 145.593 208.844C145.239 200.62 143.325 192.68 142.028 184.584C139.747 170.341 140.89 155.658 137.657 141.557C136.389 136.024 134.424 130.656 131.618 125.717C130.232 123.277 128.646 120.919 126.788 118.814C125.19 117.003 123.529 115.26 121.661 113.737C121.064 114.336 119.872 114.031 119.56 113.157C119.346 112.557 119.408 111.855 119.271 111.226C119.143 110.643 118.968 110.064 118.733 109.514C118.267 108.419 117.581 107.367 116.79 106.481C115.936 105.523 114.954 104.726 113.855 104.069C112.748 103.407 111.538 103.21 110.371 102.726C110.332 102.71 110.328 102.657 110.371 102.642ZM115.253 178.761C115.255 178.703 115.323 178.676 115.364 178.714C115.805 179.121 116.071 179.704 116.395 180.203C116.769 180.78 117.162 181.344 117.574 181.894C118.398 182.996 119.317 184.034 120.242 185.051C121.103 185.998 122.021 186.904 122.973 187.758C124.004 188.684 125.159 189.509 126.096 190.534C128.051 192.673 128.367 195.609 128.78 198.365L128.825 198.663C129.076 200.299 129.302 201.939 129.505 203.581C129.604 204.38 129.702 205.18 129.783 205.981L129.807 206.234C129.879 207.019 129.898 207.814 129.449 208.499C128.968 209.232 127.875 209.489 127.225 208.786C126.108 207.579 126.317 205.434 126.172 203.881C126.052 202.597 125.916 201.314 125.764 200.033L125.686 199.392C125.506 197.935 125.36 196.449 125.028 195.017C124.735 193.756 124.176 192.805 123.259 191.891C122.336 190.971 121.376 190.112 120.524 189.121C119.62 188.07 118.805 186.943 118.07 185.767C117.441 184.761 116.938 183.666 116.476 182.572L116.4 182.39C115.953 181.324 115.218 179.935 115.253 178.761ZM131.378 132.955C131.388 132.806 131.607 132.804 131.611 132.955C131.638 134.234 131.665 135.513 131.691 136.793C131.905 147.102 131.773 157.435 132.805 167.709C133.292 172.553 134.188 177.325 135.225 182.078C135.755 184.51 136.312 186.936 136.841 189.369C137.357 191.739 137.909 194.121 138.318 196.514C138.72 198.865 139.08 201.235 139.241 203.617L139.261 203.927C139.331 205.081 139.663 206.778 139.029 207.801C138.342 208.909 137.027 208.928 136.292 207.871C135.601 206.878 135.772 205.112 135.65 203.927C135.526 202.721 135.395 201.513 135.246 200.309C134.955 197.961 134.572 195.617 134.174 193.285C133.344 188.427 132.141 183.631 131.252 178.781C130.342 173.812 129.695 168.807 129.668 163.747C129.641 158.645 130.179 153.552 130.451 148.46C130.728 143.289 131.042 138.122 131.378 132.955ZM82.7937 100.89C83.0699 99.9581 84.0444 99.3754 84.9951 99.6372C85.8663 99.8772 86.5856 100.937 86.245 101.844C85.8733 102.834 85.2237 103.677 84.676 104.577C84.1702 105.408 83.4323 106.062 82.917 106.878L83.4848 107.492C83.7689 107.798 84.0539 108.102 84.3419 108.401L85.3324 109.43C86.1037 110.229 86.8799 111.024 87.678 111.795C90.0248 114.064 92.4088 116.259 95.0371 118.202C95.6354 118.644 96.2384 119.084 96.8582 119.496L97.0894 119.649C97.5146 119.928 97.9891 120.202 98.5028 120.155C99.7511 120.04 100.879 118.711 101.737 117.884L101.782 117.841C103.908 115.814 105.876 113.597 107.597 111.214C107.979 110.684 108.349 110.146 108.709 109.601C107.877 108.627 108.076 106.725 108.03 105.543C107.998 104.713 107.995 103.882 107.991 103.05L107.989 102.883C107.978 102.345 107.954 101.829 108.303 101.386C108.323 101.36 108.365 101.361 108.391 101.374C108.868 101.625 109.015 102.045 109.219 102.515L109.24 102.564C109.488 103.129 109.725 103.7 109.965 104.268C110.216 104.863 110.447 105.466 110.68 106.068C110.789 106.348 110.893 106.63 110.994 106.912C111.056 107.093 111.12 107.272 111.186 107.452L111.201 107.466C111.288 107.539 111.362 107.617 111.425 107.698C111.691 107.831 111.903 108.074 112.002 108.432C112.218 109.21 111.771 109.844 111.372 110.462C109.752 112.97 107.905 115.361 105.852 117.53C104.833 118.607 103.76 119.636 102.643 120.612L102.448 120.782C101.445 121.646 100.356 122.465 99.0159 122.667C97.4481 122.903 96.1721 122.122 94.9719 121.221L94.8522 121.131C93.7144 120.268 92.5995 119.374 91.5193 118.439C89.317 116.533 87.2219 114.487 85.3625 112.242C83.5537 110.058 81.7659 107.616 80.651 104.989C80.583 104.829 80.7618 104.661 80.9018 104.795C81.4464 105.314 81.9703 105.862 82.4881 106.417C82.5025 105.6 82.3521 104.777 82.4358 103.955C82.5378 102.956 82.5084 101.852 82.7937 100.89Z" fill="black"/>
<path fill-rule="evenodd" clip-rule="evenodd" d="M119.185 65.7887C118.817 61.0157 119.387 56.0128 117.551 51.4761C114.35 43.9487 105.373 41.4389 98.4142 38.5732C95.6262 37.7474 86.245 37.632 82.9806 36.5392C75.5925 34.0657 73.8273 31.1187 67.9568 35.8282C66.9659 36.6327 66.3459 37.5071 65.8936 38.7017L65.9122 38.7068C65.783 39.2049 65.9215 39.7018 66.2125 40.0814C63.6671 42.6893 62.602 46.5992 63.908 50.0708C68.17 59.1047 67.9695 63.9893 66.5963 73.7012C64.8031 82.7679 68.9009 86.0799 75.6873 91.0131C75.411 91.5501 75.3537 92.2638 75.714 92.7377C83.5616 103.791 98.3582 109.069 111.036 103.459C116.182 101.163 118.48 95.6694 119.791 90.7127C121.318 85.1626 121.787 79.3143 120.544 73.6607C120.042 71.046 119.389 68.4502 119.185 65.7887Z" fill="white"/>
<path fill-rule="evenodd" clip-rule="evenodd" d="M73.9183 12.9072C74.8708 12.7638 75.5902 13.3562 75.9324 14.1912L75.9504 14.2361C76.0603 14.5202 76.1827 14.7966 76.3143 15.0683C78.698 13.8961 82.0993 14.1973 83.6079 16.5711C84.6843 18.2664 84.0276 20.2785 83.6218 22.0763L83.3554 23.2609C83.8704 23.5893 84.2587 24.1776 84.2405 24.7867L84.2383 24.8336L84.1299 26.4854C84.4737 26.1361 84.7881 25.7558 85.0685 25.3506C85.2621 24.995 85.4712 24.6457 85.6958 24.3073C87.0169 22.3154 89.983 24.0464 88.8926 26.1796C88.6835 26.591 88.4481 26.9807 88.1956 27.3564C87.9106 27.9106 87.6767 28.4804 87.4971 29.0657C88.0128 29.2908 88.4093 29.7907 88.4512 30.5453C88.5487 32.3074 87.6256 33.7776 86.1573 34.7013C85.7252 34.973 85.2791 35.0258 84.8749 34.9249C84.8036 35.0211 84.7324 35.1174 84.6642 35.2152C85.2497 35.6918 85.7778 36.2352 86.2317 36.8376C87.5977 36.6327 88.9716 36.5364 90.3454 36.5333C92.0244 35.7089 94.0348 35.726 95.8392 36.0349C97.0008 36.2337 98.116 36.6202 99.2591 36.8981C100.464 37.19 101.688 37.2009 102.907 37.3996C104.443 37.6495 105.791 38.3606 106.638 39.4955C107.569 39.5234 108.548 39.9053 109.359 40.4239C111.249 41.6317 113.128 42.8567 115.012 44.0723C115.736 44.539 116.006 45.284 115.873 46.115L115.864 46.1682L115.801 46.5128L115.95 46.725C116.527 47.5415 117.154 48.3968 117.528 49.298C118.219 50.2963 118.843 51.3427 119.396 52.4217C120.141 53.8717 120.756 55.4087 121.172 56.9861C121.276 57.3851 121.38 57.7872 121.448 58.1939C121.546 58.7684 121.395 59.2139 121.313 59.7651C121.211 60.4637 121.174 61.1716 121.065 61.8718C120.993 62.336 120.599 62.5643 120.187 62.5767C120.342 63.7581 120.454 64.9474 120.56 66.1273C120.711 67.8133 120.813 69.504 120.901 71.1947C121.357 71.8576 122.287 72.3823 122.96 72.564C123.891 72.8139 124.866 72.5422 125.746 72.224C126.299 72.0237 126.753 72.7208 126.483 73.1865C125.636 74.649 123.824 74.6428 122.452 73.9954C121.871 73.7222 121.361 73.3263 120.983 72.8108C121.007 73.3014 121.031 73.792 121.056 74.2842L121.079 74.7299C121.358 79.9358 121.961 85.3207 120.985 90.4753C119.295 99.4038 111.924 106.202 102.919 106.73C98.1938 107.007 94.2588 105.608 92.3021 104.828C90.3454 104.047 91.1059 102.456 92.4643 102.911C94.8043 103.695 99.103 104.862 102.95 104.358C112.017 103.17 119.706 98.6273 118.916 79.0628C118.804 76.2884 118.459 73.5126 118.384 70.7382C118.313 68.026 118.339 65.3122 118.22 62.6015L118.18 61.6767C118.134 60.596 118.084 59.5103 118.003 58.4284C117.906 58.0092 117.825 57.5838 117.706 57.1724C117.382 56.053 116.959 54.9647 116.434 53.9261C116.318 54.0146 116.188 54.0782 116.047 54.1031C114.977 54.2956 113.973 54.2412 112.971 53.7941C112.503 53.5876 112.091 53.3128 111.707 52.9728C111.524 52.8129 111.402 52.6577 111.306 52.4962C110.821 52.504 110.336 52.358 110.033 52.0087C109.687 51.6106 109.629 51.1994 109.765 50.8187L109.779 50.7807L109.745 50.7683C109.336 51.8286 108.521 52.7617 107.628 53.392C106.215 54.3918 104.448 54.6806 102.753 54.707C100.882 54.7349 98.909 54.4462 97.0628 54.1512C96.5749 54.0736 96.0901 53.9851 95.6146 53.8655C95.596 53.8842 95.5774 53.9059 95.5573 53.9245C93.9728 55.4444 91.744 55.8357 89.7336 54.9678C88.572 54.4664 87.5977 53.659 86.7366 52.7337C86.7242 53.2181 86.6994 53.7025 86.6576 54.1822L86.6403 54.3727C86.5545 55.2662 86.3895 56.214 85.7159 56.8588C84.627 57.9036 83.0472 57.4844 81.7911 56.8044C81.7926 56.837 81.7926 56.8712 81.7926 56.9053C82.1318 58.0604 82.4726 59.217 82.8133 60.3737L82.8867 60.62C83.1345 61.4413 83.4063 62.2636 83.4809 63.1232C83.6234 64.7657 82.533 66.3881 80.7115 65.8369C79.7561 65.5489 78.9907 64.7437 78.2563 64.0987L77.7935 63.6976C78.9908 67.6208 79.8209 71.6837 79.8984 75.7777C79.903 75.9997 79.7125 76.1674 79.5019 76.1751C79.0093 76.1953 78.4796 76.0975 77.984 75.9003C77.9561 75.8988 77.9282 75.8972 77.8988 75.8926C77.0531 75.7699 76.2679 75.4641 75.5755 75.0123C75.7351 75.52 75.8063 76.0649 75.7645 76.6347C75.7536 76.7728 75.5384 76.821 75.5074 76.6688C75.1078 74.6987 72.8077 73.2098 70.8252 73.5871C68.6971 73.9923 67.1296 75.8274 66.7455 77.9155C66.3335 80.1589 67.1219 82.7531 68.5824 84.4842C69.2547 85.2822 70.139 85.9482 71.1892 86.1158C71.6693 86.1919 72.168 86.1655 72.6343 86.0289C72.8325 85.9699 73.0184 85.8876 73.2073 85.81C73.483 85.6982 73.8052 85.6811 74.0654 85.5632C74.6555 85.2977 75.2487 85.8426 74.9498 86.4496C74.6896 86.979 74.4557 87.3361 74.0236 87.6094C74.3736 88.0379 74.6911 88.634 74.8088 88.7939C75.4098 89.6075 76.0201 90.3759 76.7046 91.1196C77.4016 91.8741 78.1621 92.5634 78.966 93.2015L79.3039 93.4691C80.0781 94.0847 80.7524 94.6551 81.2985 95.538C81.7291 96.2351 81.1715 97.1806 80.3646 97.1697C77.84 97.134 76.0046 94.9108 74.6973 92.9686C74.5115 92.6907 74.3364 92.3973 74.1738 92.0961C74.115 92.1908 74.0499 92.2793 73.9771 92.36L74.1212 92.7482C74.5486 93.8908 72.7071 94.6376 72.1727 93.571C71.7839 92.7979 71.3332 92.062 70.8314 91.3664C70.5356 91.3245 70.2459 91.1444 70.0848 90.9116C69.6775 90.32 69.2206 89.7223 68.8349 89.092C68.6212 88.8886 68.4012 88.693 68.1766 88.5021C68.1116 88.5595 68.045 88.6169 67.9815 88.6775C67.6996 89.3218 67.3511 89.9102 66.919 90.4644L66.8263 90.5827C65.9985 91.6285 64.9202 92.6988 63.5858 92.9547C63.1785 93.0323 62.7866 92.5246 63.1475 92.2001C64.0815 91.3587 65.1858 90.7858 66.047 89.8465C66.4712 89.3838 66.8608 88.8742 67.1958 88.3401L67.2721 88.2164C67.3279 88.1248 67.3852 88.0332 67.444 87.94C67.0553 87.6746 66.6665 87.4075 66.2778 87.1405C65.2075 88.057 63.8139 88.4762 62.6301 89.2354L62.5125 89.3125C61.4422 90.0297 60.3147 88.4431 61.1727 87.5721C62.1186 86.6156 62.9082 85.475 63.7461 84.4118C63.3521 83.6843 63.1656 82.8241 63.0958 81.9547C63.0682 81.7086 63.0467 81.4623 63.0252 81.2161C62.4242 81.2254 61.8201 81.019 61.309 80.6634L61.1154 80.5253C60.4943 80.724 59.8423 80.8202 59.2181 80.8032C57.7498 80.7597 57.1488 79.0783 58.0673 78.0148C59.0043 76.9281 60.6446 76.6906 61.9441 77.2184C61.9859 77.1967 62.0292 77.1734 62.0711 77.1501C62.0091 76.8644 62.0229 76.6053 62.0934 76.3777L62.0729 76.2389C61.7872 75.7994 61.5993 75.2976 61.528 74.7675C61.4717 74.3475 61.4831 73.9313 61.5801 73.5166C61.6123 73.3786 61.6794 73.2356 61.7306 73.0917C61.625 72.8243 61.5629 72.548 61.5437 72.2701C61.5141 72.2348 61.4847 72.1987 61.4568 72.1595C60.812 71.2521 60.9423 70.1587 61.5559 69.4243C61.5587 69.3776 61.563 69.3309 61.5694 69.2845C61.5335 69.2034 61.5005 69.1216 61.4704 69.0388C60.8709 68.4326 60.4307 67.7031 60.5128 66.799C60.5609 66.2672 60.779 65.7884 61.1091 65.4305C61.0505 65.2569 61.0449 65.0559 61.1159 64.8881C60.5891 63.4837 60.6557 61.7922 61.0349 60.2215C60.9512 59.9824 60.9079 59.7232 60.9172 59.4484C60.9605 58.2824 61.9673 57.2112 63.1599 57.2252C63.3035 57.2264 63.4379 57.2452 63.5671 57.2727L63.5688 57.2449C63.6145 56.8949 63.7105 56.5716 63.8507 56.2814C63.7818 56.2564 63.718 56.2205 63.662 56.1729C62.8978 56.5815 62.0892 56.8939 61.2413 57.1067C60.6179 57.2632 59.9793 56.5529 60.3669 55.9664C60.5467 55.6942 60.7451 55.4499 60.9588 55.2266C60.6549 55.2283 60.3464 55.249 60.0343 55.2892C59.4736 55.3622 58.8479 54.9787 58.4839 54.4601C58.0316 54.9011 57.5778 55.3404 57.124 55.7798C55.9748 56.896 54.2385 56.0748 54.0573 54.603C53.715 54.5114 53.3959 54.3561 53.1156 54.1341C51.3034 54.9228 49.3534 55.3559 47.36 55.4382C45.9289 55.4972 45.0925 53.8267 45.7616 52.6468C46.2108 51.855 46.7684 51.144 47.4111 50.5261C46.4137 50.8319 45.3837 51.0524 44.332 51.1937C43.7636 51.2697 42.9597 50.7978 42.7321 50.2746C41.8616 48.2625 41.9359 46.1651 42.9381 44.2074C42.9768 44.1297 43.0201 44.0552 43.062 43.9807C43.1657 43.7214 43.2788 43.4653 43.4012 43.2138C42.1683 41.9252 42.0614 40.0094 42.7259 38.4056C42.4595 37.9725 42.3572 37.4508 42.5384 36.9789C43.0542 35.6204 43.7977 34.366 44.7363 33.2885C44.6464 33.1147 44.5674 32.9299 44.5008 32.7312C43.9727 31.1243 44.5845 29.1853 45.8189 28.0659C46.5949 27.3611 47.487 26.9388 48.4396 26.6686C48.8407 25.9576 49.3565 25.3164 49.9575 24.7761C49.9807 24.7249 50.0039 24.6737 50.0303 24.6224C50.9658 22.8557 52.6695 21.9086 54.4956 21.6897C54.5669 20.9989 55.0315 20.339 55.7068 20.1248C55.8927 19.5271 56.1699 18.9558 56.5509 18.4372C57.1503 17.6206 58.1463 17.2356 59.0849 17.7712C59.5991 18.0646 60.0916 18.4015 60.5532 18.7741C60.7605 18.6767 60.9955 18.6136 61.2607 18.5935L61.3276 18.5894L62.8548 18.5117C63.4945 18.2276 64.1326 17.9296 64.7723 17.6392C65.1564 17.321 65.5854 17.0555 66.0532 16.8583C66.5829 16.6363 67.125 16.5106 67.6686 16.4686C68.11 16.3243 68.5546 16.1969 69.0068 16.0976C70.0693 15.8647 71.1814 15.7343 72.2842 15.7452C72.3068 15.4591 72.318 15.1695 72.3158 14.8766L72.3136 14.7298C72.2889 13.7906 73.037 13.0407 73.9183 12.9072ZM72.848 88.0565C72.6962 88.0891 72.5429 88.1155 72.3895 88.1341C72.436 88.249 72.4825 88.3639 72.5274 88.4788C72.6513 88.5486 72.7767 88.6154 72.9022 88.6775C72.865 88.4664 72.8433 88.2537 72.848 88.0565ZM64.8904 85.6863L64.7875 85.8763C64.7708 85.9074 64.7544 85.9381 64.7382 85.9684C64.9566 85.9513 65.1765 85.9559 65.3934 85.9808L65.3927 85.9576C65.3649 85.9482 65.337 85.9395 65.3103 85.9264C65.1607 85.8544 65.0216 85.7737 64.8904 85.6863ZM69.1911 77.015C70.5615 77.095 71.7224 77.3056 72.9686 77.9065L73.0757 77.959C74.1769 78.507 75.9984 79.5192 75.845 80.9708C75.8017 81.3838 75.5027 81.8185 75.0319 81.7859C73.7417 81.6974 73.0044 80.3933 72.1309 79.5798C71.2496 78.7601 70.1669 77.9171 69.0998 77.3535C68.9489 77.2741 69.0083 77.023 69.1725 77.0149L69.1911 77.015ZM62.9771 57.8896C62.6488 57.9005 62.7588 58.2203 62.9276 57.9533C62.9415 57.9316 62.9586 57.9098 62.9771 57.8896ZM80.7016 36.5392C77.5918 36.6212 74.4621 38.4617 72.1324 40.322C70.1057 41.9405 68.3557 43.8657 66.8061 45.9406C66.4074 46.9739 66.0651 48.0289 65.7759 49.0916C65.5854 49.7933 65.4662 50.5028 65.3066 51.2107L65.2571 51.4278C65.1318 51.6625 65.0387 51.9151 64.9708 52.1761C65.2532 52.4599 65.6195 52.6631 66.0228 52.7595C66.1528 52.7906 66.2607 52.8578 66.3461 52.9469C66.6707 52.4038 66.9544 51.8307 67.1196 51.223L67.1256 51.1949C67.7496 50.1704 68.4274 49.1777 69.154 48.219C71.1582 45.572 73.3653 43.1594 76.0185 41.152C78.0305 39.6306 80.2794 38.4382 82.6708 37.6635C82.0855 37.1902 81.4208 36.8157 80.7016 36.5392Z" fill="black"/>
<path fill-rule="evenodd" clip-rule="evenodd" d="M104.948 94.2261C103.907 93.8003 102.978 93.0901 102.299 92.1829C102.063 91.8675 102.002 91.5345 102.051 91.2299C102.107 90.8874 102.309 90.5769 102.585 90.3687C102.861 90.1598 103.207 90.0568 103.542 90.1093C103.832 90.155 104.122 90.3145 104.351 90.6452L104.398 90.7114C104.802 91.2589 105.328 91.7082 105.928 91.9978C106.506 92.2769 107.152 92.4072 107.821 92.3314C109.095 92.1872 109.973 91.4967 110.906 90.559C111.021 90.4407 111.137 90.3186 111.253 90.1945C111.327 90.082 111.429 90.0098 111.542 89.9718C111.668 89.9297 111.81 89.9321 111.94 89.9777C112.065 90.0216 112.178 90.1048 112.253 90.2156C112.325 90.3209 112.365 90.451 112.352 90.6006C112.267 91.5723 111.76 92.4395 111.04 93.1205C110.24 93.8768 109.18 94.4 108.182 94.5835C107.083 94.7857 105.963 94.6408 104.948 94.2261ZM108.701 79.2351C109.871 79.9477 111.653 81.6094 110.394 83.376C108.913 84.9337 106.781 83.1477 105.73 82.34C104.756 81.7139 103.661 83.324 104.565 84.055C112.158 89.6898 115.24 79.4214 109.293 78.3972C108.638 78.2844 108.395 79.0146 108.701 79.2351ZM95.0941 72.6803C95.2233 71.0724 97.6663 70.7073 97.9093 72.2983C98.1269 73.7236 97.8708 75.0328 97.2303 76.3159C96.6184 77.5418 95.0803 76.9699 94.9639 75.8536C94.808 74.3573 95.0137 73.6804 95.0941 72.6803ZM113.69 71.9685C114.031 71.5213 114.523 71.2161 115.112 71.3886C116.953 71.9278 116.41 74.5473 115.764 75.8224C115.412 76.5148 114.277 76.6904 113.764 76.0807C112.927 75.0865 112.527 73.101 113.59 72.1217C113.619 72.0711 113.651 72.02 113.69 71.9685ZM97.2044 65.6449L97.4952 65.5939C98.3947 65.438 99.5132 65.2881 100.15 66.013C100.487 66.3974 100.603 67.1119 100.15 67.4798C99.3516 68.1272 98.4693 67.8763 97.5131 67.9311C96.725 67.9765 95.9676 68.1072 95.2085 68.3247C93.5432 68.8018 92.1862 69.6728 90.7639 70.6291C90.5773 70.7545 90.3868 70.5153 90.4758 70.3403C91.2969 68.7284 92.888 67.4042 94.4818 66.5971C95.3324 66.1663 96.2633 65.8089 97.2044 65.6449ZM112.012 64.9228L112.235 64.9685C114.657 65.4759 117.803 66.4896 118.95 68.8742C118.994 69.2114 118.948 69.2837 118.91 69.3309L118.898 69.3466C118.867 69.3869 118.842 69.4425 118.696 69.4884C118.656 69.4787 118.615 69.4685 118.574 69.4576C118.048 69.3195 117.632 69.1293 117.229 68.9319L116.793 68.7162C116.286 68.4673 115.775 68.2274 115.234 68.0503C114.078 67.6724 112.889 67.4062 111.682 67.2641C111.42 67.2333 111.168 67.1448 110.969 66.9931C110.781 66.8491 110.637 66.6497 110.571 66.3847C110.486 66.0417 110.51 65.7821 110.694 65.4727C110.832 65.2403 111.029 65.0793 111.256 64.9868C111.487 64.8925 111.751 64.8703 112.012 64.9228Z" fill="black"/>
<path fill-rule="evenodd" clip-rule="evenodd" d="M94.9023 95.199C96.1563 92.2543 98.8932 90.0901 102.044 89.2989C104.358 88.7193 106.787 88.7378 109.146 88.9678C110.382 89.0875 111.707 89.1856 112.872 89.6456C113.867 90.0387 114.677 90.7816 115.287 91.6536C116.012 92.687 116.505 93.8697 116.852 95.082C116.901 95.2543 116.947 95.4279 116.99 95.6025C116.84 96.5171 116.52 97.2956 115.675 97.8706C114.85 98.4321 113.866 98.6618 112.885 98.7434C112.789 98.6971 112.696 98.6496 112.611 98.6008C111.082 97.7236 110.006 95.6506 108.076 95.9312C106.355 96.1817 105.221 98.3533 104.197 99.6268C100.91 100.011 97.6256 99.0207 94.9512 97.1367C94.8154 96.4919 94.8075 95.8416 94.9023 95.199ZM119.225 92.9652C118.962 92.2255 118.63 91.5092 118.238 90.8344C116.94 88.6028 114.948 86.8246 112.583 85.8082C106.988 83.407 99.7489 85.0997 95.2307 89.0378C93.6873 90.384 92.1267 92.3623 91.6548 94.4903C91.5139 94.5183 91.3809 94.5918 91.2714 94.6953C88.007 92.6352 84.6453 90.6532 82.0148 87.7976C80.1045 85.7227 78.7758 83.2673 77.9622 80.5691C77.8957 80.347 77.5384 80.3795 77.5492 80.6252C77.5523 80.6827 77.5554 80.7401 77.5585 80.7976C77.5245 80.6919 77.3636 80.7463 77.3512 80.8489C76.9135 84.1266 76.3659 87.6017 76.8702 90.8966C77.1718 92.8626 78.0628 94.3019 79.2538 95.8561C80.5299 97.522 81.9746 99.0715 83.4518 100.557C84.3892 101.501 85.3683 102.589 86.516 103.28C87.8509 104.084 89.3652 104.695 90.7898 105.315C92.2392 105.947 93.7102 106.532 95.2091 107.038C98.2052 108.055 101.302 108.757 104.453 109.065C106.976 109.31 109.859 109.578 112.276 108.627C114.13 107.898 115.625 106.58 116.812 104.994C118.103 103.268 119.124 101.301 119.689 99.2269C120.275 97.0725 119.348 93.3125 119.225 92.9652Z" fill="black"/>
<path fill-rule="evenodd" clip-rule="evenodd" d="M265.716 209.619C266.537 210.863 268.151 210.671 268.844 209.708C276.736 211.542 284.826 210.819 292.827 210.37C315.374 209.454 338.049 212.323 360.505 209.322C362.887 208.847 365.659 209.074 367.608 207.426C370.726 203.782 370.055 198.249 369.558 193.81C365.577 168.789 359.918 143.539 357.095 118.357C356.937 115.958 357.928 112.978 358.817 110.723C359.036 110.304 360.423 109.893 361.142 109.409C363.351 107.827 362.993 104.993 361.078 103.331C354.879 98.9717 346.25 100.495 339.674 102.103C338.414 97.3813 336.997 94.2759 334.597 93.9684C330.03 93.383 318.952 91.5943 315.539 93.9684C313.907 95.1041 312.859 99.1061 311.684 101.056C303.114 100.904 285.72 89.4658 282.144 102.346C279.238 102.546 276.361 105.076 276.916 108.113C273.148 111.434 276.12 116.414 276.068 120.549C275.573 129.32 270.815 137.165 268.835 145.638C264.31 162.072 259.189 191.966 264.801 208.007C264.68 207.944 264.417 208.039 264.587 208.172C265.223 208.351 265.306 209.149 265.716 209.619Z" fill="white"/>
<path fill-rule="evenodd" clip-rule="evenodd" d="M364.248 205.44C363.196 197.01 362.464 186.835 362.455 178.335C362.455 177.535 363.7 177.536 363.7 178.335C363.709 186.835 364.441 197.01 365.493 205.44C365.592 206.232 364.346 206.222 364.248 205.44ZM356.451 153.175C354.825 154.167 352.689 153.479 351.079 152.822C350.346 152.523 350.669 151.322 351.41 151.624C352.635 152.125 354.426 152.861 355.718 152.163C357.009 151.467 357.067 149.552 357.077 148.289C357.083 147.489 358.328 147.489 358.322 148.289C358.309 150.008 358.078 152.182 356.451 153.175ZM353.441 191.748C351.8 190.909 350.4 189.762 349.273 188.307C348.783 187.674 349.865 187.056 350.348 187.68C351.34 188.961 352.632 189.941 354.069 190.676C354.783 191.041 354.152 192.113 353.441 191.748ZM345.554 148.402C342.738 159.656 340.849 171.112 339.923 182.675C339.735 185.023 339.602 187.367 339.528 189.713C339.453 190.325 339.381 190.938 339.314 191.551C339.061 193.87 338.866 196.227 338.883 198.562C338.891 199.61 338.924 200.653 338.995 201.698C338.871 201.349 338.756 200.998 338.644 200.649C338.415 199.933 338.264 199.191 338.03 198.48C337.837 197.891 337.588 197.328 337.356 196.758V196.757C337.426 194.423 337.268 192.068 337.187 189.745C337.083 186.737 336.953 183.731 336.886 180.721C336.753 174.7 336.819 168.675 337.037 162.657C337.475 150.532 338.58 138.465 339.694 126.389C340.004 123.031 340.337 119.674 340.567 116.31C340.799 112.91 340.892 109.504 340.919 106.095C340.92 105.849 340.547 105.784 340.478 106.022C340.418 105.213 340.31 104.405 340.131 103.625C342.816 105.332 345.647 106.809 348.422 108.361C349.883 109.179 351.339 110.012 352.845 110.744C353.673 111.148 354.509 111.519 355.362 111.87C356.246 112.233 357.091 112.733 358.064 112.48C358.148 112.458 358.227 112.427 358.303 112.387C358.193 112.596 358.082 112.805 357.976 113.016C357.609 113.744 357.259 114.475 356.92 115.212C356.829 115.279 356.75 115.371 356.688 115.49C356.523 115.812 356.362 116.136 356.207 116.465C356.176 116.436 356.145 116.406 356.113 116.377C355.983 116.254 355.802 116.439 355.917 116.572C355.97 116.633 356.022 116.692 356.073 116.753C355.058 118.931 354.233 121.221 353.384 123.456C352.339 126.204 351.349 128.972 350.417 131.759C348.579 137.241 346.957 142.794 345.554 148.402ZM305.302 189.245C300.113 192.017 295.264 195.329 290.6 198.903C289.965 199.39 289.345 198.31 289.972 197.83C294.636 194.257 299.485 190.944 304.674 188.172C305.381 187.795 306.009 188.867 305.302 189.245ZM287.776 156.779C287.506 156.759 287.244 156.603 287.176 156.323C286.756 154.606 286.426 152.736 286.817 150.985C286.992 150.204 288.192 150.536 288.018 151.315C287.71 152.696 287.955 154.189 288.275 155.565C292.8 155.763 297.265 154.143 301.595 153.055C302.374 152.86 302.703 154.058 301.926 154.253C297.333 155.407 292.582 157.134 287.776 156.779ZM377.873 202.572C377.877 202.561 377.882 202.549 377.885 202.538C378.151 201.734 378.157 200.799 378.187 199.956C378.238 198.457 378.184 196.954 378.048 195.459C377.762 192.312 377.146 189.216 376.41 186.147C374.951 180.067 372.891 174.152 371.772 167.99C369.576 155.894 370.097 143.3 365.788 131.634C363.996 126.783 361.438 122.121 357.961 118.268C358.214 117.498 358.462 116.726 358.703 115.951C359.125 114.604 359.556 113.213 359.816 111.825C359.822 111.788 359.83 111.749 359.835 111.71C361.315 111.073 362.661 109.873 362.891 108.277C362.991 107.588 362.876 106.824 362.577 106.158C363.187 105.596 363.579 104.867 363.486 103.888C363.311 102.047 361.156 101.573 359.656 101.213C357.95 100.805 356.18 100.692 354.436 100.884C353.555 100.981 352.683 101.142 351.832 101.384C351.093 101.594 350.288 101.81 349.695 102.316C349.625 102.375 349.683 102.49 349.767 102.49C350.967 102.485 352.162 102.046 353.374 101.988C354.644 101.929 355.911 102.033 357.156 102.294C358.373 102.549 359.587 102.921 360.694 103.497C361.005 103.66 361.461 103.77 361.095 104.1C360.828 104.34 360.302 104.361 359.958 104.396C359.197 104.475 358.54 104.919 358.443 105.73C358.358 106.445 358.786 107.256 359.548 107.417C359.59 107.427 359.629 107.437 359.663 107.451C359.684 107.49 359.715 107.523 359.712 107.47C359.712 107.47 359.713 107.469 359.713 107.47C359.732 107.583 359.738 107.628 359.738 107.636C359.733 107.627 359.726 107.588 359.719 107.557C359.724 107.585 359.733 107.63 359.746 107.697C359.729 107.624 359.743 107.802 359.729 107.83C359.324 108.575 358.127 108.785 357.43 109.106C357.295 109.168 357.178 109.241 357.078 109.324C356.913 109.266 356.745 109.209 356.576 109.145C355.74 108.833 354.906 108.53 354.059 108.249C352.425 107.705 350.771 107.219 349.136 106.672C346.042 105.638 343.051 104.332 340.015 103.149C339.918 102.792 339.806 102.443 339.674 102.103C339.647 102.032 339.52 102.008 339.506 102.103C339.459 102.404 339.422 102.707 339.391 103.011C339.378 103.039 339.375 103.07 339.381 103.1C339.205 104.87 339.252 106.681 339.162 108.45C339.05 110.654 338.737 112.843 338.648 115.049V115.09C338.321 116.973 338.026 118.862 337.758 120.758C337.458 120.665 337.114 120.684 336.762 120.871C334.275 122.196 331.48 122.933 328.667 123.098C327.251 123.18 325.849 123.134 324.44 122.97C323.514 122.865 322.602 122.672 321.689 122.489C322.17 120.479 322.686 118.477 323.27 116.497C323.751 114.868 324.286 113.247 324.948 111.68C325.615 110.098 326.447 108.588 327.22 107.054C327.576 106.345 327.156 105.259 326.23 105.334C325.956 105.356 325.682 105.373 325.407 105.385C322.727 105.513 319.939 105.214 317.294 104.949C314.282 104.645 311.23 104.329 308.245 103.834C308.024 103.798 307.934 104.098 308.152 104.171C309.568 104.646 310.967 105.183 312.419 105.539C313.913 105.907 315.417 106.242 316.933 106.504C318.385 106.755 319.843 106.964 321.306 107.141C322.26 107.257 323.225 107.316 324.185 107.394C322.892 109.456 322 111.781 321.223 114.071C320.226 117.012 319.493 120.038 318.775 123.057C317.241 129.53 315.975 136.067 314.986 142.645C314.276 147.362 313.702 152.097 313.271 156.845C313.143 155.402 312.987 153.965 312.811 152.529C312.223 147.761 311.364 143.024 310.215 138.359C310.318 138.179 310.366 137.963 310.332 137.753C310.125 136.471 309.58 135.355 309.103 134.166C308.628 132.504 308.116 130.854 307.565 129.216C306.939 126.985 306.237 124.788 305.339 122.643C304.653 121.008 303.87 119.415 302.999 117.87C301.958 115.711 300.814 113.598 299.558 111.578C299.492 111.39 299.386 111.215 299.235 111.067C299.007 110.707 298.775 110.352 298.538 109.999C298.384 109.769 297.942 109.909 298.059 110.201C298.113 110.338 298.168 110.474 298.224 110.609C293.108 109.333 288.092 111.285 283.219 112.725C281.99 113.09 280.748 113.419 279.487 113.657C278.496 113.843 277.341 114.07 276.353 113.865C275.691 113.728 275.399 113.429 275.721 112.724C276.054 111.994 276.963 111.514 277.752 111.192C278.049 111.128 278.342 111.014 278.623 110.844C279.28 110.446 279.568 109.617 279.258 108.911C278.977 108.273 278.155 107.723 277.428 108.015C277.324 108.057 277.221 108.097 277.118 108.138C277.107 108.122 277.095 108.1 277.084 108.069C276.98 107.785 276.935 108.125 276.98 107.718C277.055 107.054 277.76 106.45 278.242 106.07C279.442 105.121 281.176 104.419 282.724 104.778C282.841 104.804 282.958 104.837 283.073 104.877C284.668 105.429 285.445 103.137 284.17 102.283C284.092 102.232 283.994 102.167 283.887 102.091C283.356 101.723 282.58 101.103 282.791 100.544C283.053 99.8504 284.595 99.4514 285.179 99.2154C287.289 98.3615 289.569 97.8771 291.844 97.7778C294.134 97.6784 296.453 97.9299 298.661 98.5461C299.744 98.8474 300.857 99.3054 301.881 99.7682C302.801 100.183 304.803 100.731 304.93 101.892C304.958 102.148 305.324 102.235 305.403 101.956C306.03 99.7262 303.596 98.287 301.99 97.3663C300.937 96.7607 299.741 96.3836 298.585 96.0126C297.477 95.6555 296.345 95.3931 295.191 95.2346C292.711 94.8963 290.203 94.9398 287.743 95.4148C285.504 95.8481 283.012 96.587 281.202 98.0246C280.091 98.9064 279.588 100.31 280.035 101.679C280.051 101.724 280.066 101.771 280.082 101.816C278.082 102.173 276.189 103.316 274.924 104.908C273.884 106.217 273.34 108.038 274.27 109.561C274.231 109.589 274.192 109.619 274.155 109.65C273.268 110.358 272.608 111.386 272.412 112.51C272.028 114.727 273.371 116.277 275.249 116.871C274.784 117.324 274.337 117.805 273.9 118.286C272.921 119.365 271.986 120.541 271.161 121.739C269.489 124.167 268.06 126.811 266.811 129.475C264.241 134.946 262.621 140.835 261.762 146.806C261.329 149.815 261.04 152.839 260.929 155.876C260.802 159.338 260.931 162.802 260.864 166.265C260.799 169.594 260.43 172.842 259.684 176.087C258.97 179.19 258.017 182.231 257.155 185.294C256.183 188.744 255.112 192.178 254.598 195.735C254.338 197.545 254.151 199.36 254.296 201.191C254.443 203.055 255.121 204.65 255.747 206.384C255.905 206.826 256.39 207.005 256.777 206.91C256.864 207.741 257.179 208.551 257.647 209.253C258.642 210.74 260.173 211.689 261.927 212.033C263.904 212.42 265.941 212.328 267.942 212.257C270.113 212.179 272.286 212.109 274.457 212.019C276.73 211.926 279.003 211.829 281.276 211.733C281.201 209.409 281.111 207.086 281.01 204.763C280.462 192.205 279.599 179.641 279.576 167.067C279.532 167.041 279.489 167.01 279.447 166.97C278.424 165.984 277.168 165.336 275.987 164.564C275.319 164.127 275.944 163.052 276.616 163.491C277.611 164.142 278.648 164.721 279.58 165.45C279.586 164.141 279.597 162.832 279.623 161.523C279.639 160.724 280.884 160.724 280.869 161.523C280.79 165.468 280.817 169.415 280.906 173.359C281.196 186.142 282.106 198.902 282.521 211.68C288.622 211.42 294.723 211.158 300.825 210.935C305.788 210.756 310.751 210.575 315.714 210.395C316.755 210.358 317.34 209.616 317.468 208.646C317.701 206.86 317.263 205.014 316.27 203.513C316.167 203.358 316.045 203.22 315.91 203.102C315.933 202.032 315.977 200.961 315.916 199.891C315.826 198.258 315.691 196.625 315.572 194.993C315.333 191.725 315.147 188.451 315.074 185.175C314.925 178.623 315.034 172.065 315.406 165.523C316.151 152.453 317.887 139.466 320.727 126.681C320.934 125.749 321.143 124.818 321.359 123.888C323.567 125.032 326.254 125.443 328.667 125.459C331.693 125.478 334.652 124.784 337.384 123.522C337.366 123.663 337.347 123.803 337.33 123.944C336.567 129.999 335.925 136.066 335.364 142.141C334.247 154.252 333.562 166.413 333.657 178.578C333.683 181.949 333.813 185.308 333.973 188.674C334.136 192.097 334.387 195.715 335.343 199.017C335.448 199.382 335.683 199.591 335.954 199.668C335.968 200.149 335.999 200.632 336.034 201.107C336.144 202.651 336.46 205.86 337.135 207.261C337.794 208.627 338.891 209.711 340.29 210.307C342.067 211.063 343.99 210.846 345.866 210.725C354.028 210.194 362.183 209.482 370.34 208.858C371.476 208.771 372.612 208.686 373.747 208.598C374.757 208.52 375.801 208.451 376.698 207.928C377.717 207.334 378.512 204.414 378.16 203.206C378.097 202.985 378 202.768 377.873 202.572Z" fill="black"/>
<path fill-rule="evenodd" clip-rule="evenodd" d="M352.541 71.9113C352.479 68.4334 352.411 64.8859 351.892 61.4418C351.386 58.0747 349.992 55.0312 347.596 52.5861C342.508 47.3925 335.132 46.1239 328.267 44.9614L316.529 42.9737C312.948 42.3675 309.128 41.3984 305.51 42.2582C303.727 42.6819 302.213 43.6662 300.83 44.8307C299.496 45.9532 298.062 47.1585 297.158 48.6687C296.253 50.181 295.941 51.9488 295.647 53.6592C295.315 55.5876 295.057 57.531 294.874 59.4791C294.507 63.3821 294.457 67.3145 294.723 71.2256C294.852 73.1226 295.057 75.0142 295.319 76.8973C295.449 77.8312 295.596 78.7627 295.762 79.6909C295.811 79.9646 295.848 80.2677 295.898 80.5739C295.528 81.6243 295.318 82.7121 295.335 83.7953C295.385 86.986 298.084 88.9948 300.806 90.0734C302.384 90.6987 304.034 91.1236 305.585 91.8223C307.216 92.5571 308.326 93.7483 309.441 95.1072C311.568 97.699 313.969 100.028 316.71 101.972C322.521 106.092 329.881 108.041 336.932 106.562C338.624 106.207 340.33 105.656 341.851 104.825C343.456 103.949 344.664 102.678 345.677 101.176C347.56 98.3878 348.91 95.2479 349.931 92.0526C350.973 88.7933 351.712 85.5281 352.115 82.1295C352.517 78.7419 352.602 75.3198 352.541 71.9113Z" fill="white"/>
<path fill-rule="evenodd" clip-rule="evenodd" d="M315.085 30.8584C319.942 30.1919 326.646 32.3581 329.065 36.726C340.614 34.01 355.181 33.921 364.699 42.9624C374.632 53.6875 362.156 67.8285 353.884 71.0168C354.486 73.9366 353.547 92.642 346.902 100.986C341.629 108.055 329.348 111.318 323.665 102.874L323.621 102.804C323.012 101.829 323.537 101.86 324.161 102.586C329.726 107.467 337.292 107.55 343.122 102.399C354.049 92.9829 352.922 69.8955 347.723 56.5391C332.917 54.9171 317.065 59.3934 306.839 70.5108L307.531 74.6634C307.649 75.3709 307.783 76.0778 307.885 76.7878C307.95 77.2426 307.957 77.695 307.641 78.0633C306.598 79.2789 304.84 77.4522 303.393 76.7256C302.966 76.6657 302.538 76.6426 302.119 76.6721C295.169 77.5651 296.538 91.0145 304.177 88.657C304.819 88.2582 305.37 88.3799 305.619 88.9587C307.44 90.6223 308.64 93.5895 311.665 96.4474C312.733 97.5194 313.704 98.4163 314.905 99.2762C315.61 99.9875 317.738 100.713 317.063 101.93C315.788 104.7 308.266 95.9991 306.936 93.5929C302.769 95.2342 298.151 94.6767 293.833 94.2756C271.053 93.0941 274.094 69.1404 292.767 54.0172C296.281 51.436 300.159 49.3303 304.19 47.71C304.741 47.4888 304.5 46.5874 303.942 46.8117C301.275 47.884 298.675 49.1603 296.196 50.6376L296.192 49.7544C296.189 48.2669 296.212 46.7183 296.471 45.3592C296.601 44.4174 296.818 43.4115 297.154 42.6549C297.568 40.3349 304.06 32.3718 315.085 30.8584ZM301.815 79.7598C302.167 79.4265 302.823 79.8239 303.136 79.814C303.937 79.9233 304.698 80.2607 305.291 80.677C305.683 80.8959 305.957 81.1015 306.187 81.2906L306.193 81.2889C306.191 81.2889 306.189 81.2906 306.187 81.2911L306.209 81.3056C306.543 81.5424 307.766 82.8758 306.993 82.5172C306.936 82.4426 306.877 82.3708 306.817 82.3005C306.811 82.3101 306.802 82.3196 306.791 82.3288L306.835 82.393C307.491 83.3783 306.358 82.3402 306.183 82.0645C306.175 82.0712 306.166 82.0757 306.156 82.0805L306.384 82.3563C306.415 82.3954 306.44 82.4267 306.461 82.4531L306.509 82.4992C307.268 83.2436 307.292 83.9135 306.41 82.813C306.445 82.8648 306.472 82.9198 306.476 82.9685L306.529 83.035C307.221 83.9252 306.658 83.6091 306.314 83.2289L306.285 83.1962L306.291 83.205C306.611 83.697 305.976 83.3518 305.863 83.0887L305.859 83.0768C305.736 82.9772 305.661 82.8655 305.635 82.8373L305.631 82.8325C305.035 82.224 304.172 81.709 303.439 81.475C303.332 81.4548 303.225 81.4387 303.116 81.4272C302.675 81.3291 302.23 81.2619 301.779 81.2255C301.724 81.219 301.668 81.1787 301.627 81.1265C300.945 81.1036 301.156 80.8251 301.438 80.7734L301.443 80.7725L301.387 80.7678C300.95 80.7253 300.652 80.5688 301.094 80.4728L301.15 80.4617C301.143 80.451 301.137 80.4403 301.131 80.4296C300.752 80.3881 300.999 80.0211 301.209 80.1099C301.121 79.8216 301.525 79.9655 301.575 79.9227C301.614 79.8801 301.662 79.8426 301.689 79.8405C301.811 79.7548 301.752 79.7626 301.815 79.7598ZM304.131 75.0921L304.042 75.1438C303.97 75.1856 303.897 75.2133 303.822 75.2297C303.927 75.2741 304.03 75.322 304.133 75.3733C304.131 75.3106 304.13 75.2481 304.13 75.1857L304.131 75.0921Z" fill="black"/>
<path fill-rule="evenodd" clip-rule="evenodd" d="M334.955 94.2261C333.909 93.8003 332.976 93.0901 332.293 92.1829C332.056 91.8675 331.994 91.5345 332.044 91.2299C332.1 90.8874 332.303 90.5769 332.58 90.3687C332.858 90.1598 333.206 90.0568 333.542 90.1093C333.834 90.155 334.125 90.3145 334.355 90.6452L334.403 90.7114C334.808 91.2589 335.337 91.7082 335.94 91.9978C336.52 92.2769 337.17 92.4072 337.842 92.3314C339.122 92.1872 340.004 91.4967 340.941 90.559C341.058 90.4407 341.174 90.3186 341.291 90.1945C341.365 90.082 341.467 90.0098 341.581 89.9718C341.707 89.9297 341.85 89.9321 341.981 89.9777C342.107 90.0216 342.22 90.1048 342.295 90.2156C342.367 90.3209 342.408 90.451 342.395 90.6006C342.309 91.5723 341.799 92.4395 341.076 93.1205C340.273 93.8768 339.208 94.4 338.205 94.5835C337.1 94.7857 335.975 94.6408 334.955 94.2261ZM338.726 79.2351C339.901 79.9477 341.692 81.6094 340.428 83.376C338.939 84.9337 336.797 83.1477 335.741 82.34C334.762 81.7139 333.662 83.324 334.57 84.055C342.2 89.6898 345.296 79.4214 339.32 78.3972C338.662 78.2844 338.418 79.0146 338.726 79.2351ZM325.053 72.6803C325.183 71.0724 327.638 70.7073 327.882 72.2983C328.101 73.7236 327.843 75.0328 327.2 76.3159C326.585 77.5418 325.039 76.9699 324.923 75.8536C324.766 74.3573 324.973 73.6804 325.053 72.6803ZM343.739 71.9685C344.082 71.5213 344.576 71.2161 345.168 71.3886C347.018 71.9278 346.472 74.5473 345.823 75.8224C345.47 76.5148 344.329 76.6904 343.813 76.0807C342.973 75.0865 342.57 73.101 343.639 72.1217C343.668 72.0711 343.7 72.02 343.739 71.9685ZM327.174 65.6449L327.466 65.5939C328.37 65.438 329.494 65.2881 330.133 66.013C330.472 66.3974 330.589 67.1119 330.133 67.4798C329.331 68.1272 328.445 67.8763 327.484 67.9311C326.692 67.9765 325.931 68.1072 325.168 68.3247C323.495 68.8018 322.131 69.6728 320.702 70.6291C320.515 70.7545 320.323 70.5153 320.413 70.3403C321.238 68.7284 322.837 67.4042 324.438 66.5971C325.293 66.1663 326.228 65.8089 327.174 65.6449ZM342.053 64.9228L342.277 64.9685C344.711 65.4759 347.872 66.4896 349.025 68.8742C349.069 69.2114 349.022 69.2837 348.985 69.3309L348.972 69.3466C348.941 69.3869 348.916 69.4425 348.77 69.4884C348.729 69.4787 348.688 69.4685 348.647 69.4576C348.118 69.3195 347.7 69.1293 347.296 68.9319L346.857 68.7162C346.348 68.4673 345.834 68.2274 345.29 68.0503C344.129 67.6724 342.934 67.4062 341.721 67.2641C341.458 67.2333 341.205 67.1448 341.005 66.9931C340.816 66.8491 340.671 66.6497 340.605 66.3847C340.519 66.0417 340.544 65.7821 340.728 65.4727C340.867 65.2403 341.066 65.0793 341.293 64.9868C341.526 64.8925 341.79 64.8703 342.053 64.9228Z" fill="black"/>
<path fill-rule="evenodd" clip-rule="evenodd" d="M354.049 82.439C353.533 81.7483 352.606 80.8418 351.668 80.8906C351.548 80.8968 351.503 81.0264 351.575 81.1141C351.882 81.4878 352.301 81.7536 352.608 82.1351C352.972 82.5865 353.235 83.131 353.405 83.6817C353.653 84.4817 353.722 85.3871 353.501 86.2006C353.111 87.6345 351.879 88.6856 350.535 89.2223C349.204 89.7536 347.603 89.935 346.344 89.1566C344.487 88.0074 342.911 86.3509 340.577 86.3182C340.031 86.3105 339.646 86.56 339.416 86.9162C339.186 86.5728 338.806 86.3298 338.274 86.3237C335.656 86.2944 333.703 88.0917 331.506 89.2122C330.021 89.9695 328.1 89.7345 326.569 89.2341C325.124 88.7623 323.556 87.8148 323.011 86.3186C322.71 85.4924 322.777 84.5276 323.086 83.7132C323.289 83.1776 323.603 82.6601 323.991 82.2392C324.393 81.8027 324.922 81.5282 325.334 81.1143C325.418 81.0297 325.352 80.8982 325.241 80.8906C323.491 80.7721 321.911 82.8568 321.58 84.3693C321.255 85.8588 321.74 87.3444 322.722 88.481C324.719 90.7917 328.418 91.5538 331.296 90.8748C333.626 90.3253 335.838 89.0597 338.274 89.2414C338.807 89.2813 339.191 89.0593 339.422 88.7227C339.653 89.0691 340.039 89.2956 340.577 89.2437C342.846 89.0243 344.872 90.6278 347.075 91.0193C348.83 91.3309 350.724 90.9106 352.228 89.968C353.799 88.9826 354.905 87.402 354.977 85.5175C355.019 84.4334 354.7 83.3117 354.049 82.439Z" fill="black"/>
<path fill-rule="evenodd" clip-rule="evenodd" d="M108.065 210.124C128.398 213.205 149.1 213.36 169.602 212.241C177.715 211.635 185.854 211.526 193.961 212.301C198.752 212.656 219.756 214.258 221.472 209.977C220.392 187.186 218.205 164.2 211.494 142.28C208.734 134.497 206.364 128.037 200.977 121.596C199.279 119.838 195.618 116.15 193.521 114.947C191.703 113.905 190.943 114.277 189.9 112.517C188.863 110.572 188.098 107.326 186.625 105.954C185.126 104.557 182.904 105.057 180.15 105.507C180.656 98.6862 177.5 96.9492 173.153 95.6522C165.51 92.7427 157.963 94.2044 156.039 103.485C152.473 103.485 150.469 105.016 148.303 106.487C147.418 107.088 148.034 108.62 146.976 109.093C145.02 109.788 141.562 109.618 139.678 110.473C131.112 114.362 123.482 120.002 118.471 128.238C107.237 145.823 99.5206 182.865 100.856 203.707C100.271 204.622 101.08 205.934 101.286 206.918C101.545 207.774 102.386 208.344 103.263 208.247C104.487 209.56 106.381 209.852 108.065 210.124Z" fill="white"/>
<path fill-rule="evenodd" clip-rule="evenodd" d="M192.226 114.431C192.101 114.362 192.211 114.184 192.336 114.243C198.366 117.064 202.992 122.015 206.247 127.736C209.618 133.659 211.539 140.383 213.195 146.956L213.254 147.194C215.02 154.225 216.522 161.329 217.874 168.45C219.243 175.662 220.342 182.918 221.226 190.205C221.663 193.807 222.053 197.416 222.357 201.032C222.509 202.839 222.647 204.648 222.771 206.457C222.821 207.181 222.867 207.904 222.907 208.629L222.936 209.172C222.961 209.665 223.02 210.159 222.898 210.645C222.792 211.064 222.57 211.443 222.374 211.828C221.987 212.588 220.927 212.463 220.51 211.828L220.389 211.643C220.112 211.217 219.882 210.821 219.796 210.29C219.712 209.776 219.709 209.238 219.671 208.719C219.602 207.765 219.543 206.809 219.475 205.854C219.334 203.844 219.176 201.835 219 199.828C218.653 195.865 218.281 191.905 217.823 187.953C217.01 180.93 215.991 173.925 214.788 166.957C213.614 160.151 212.129 153.413 210.579 146.684L210.419 145.988C207.706 134.239 203.526 120.71 192.226 114.431ZM127.998 160.435C128.042 160.318 128.233 160.291 128.265 160.435C128.671 162.26 128.712 164.139 128.774 166.007C128.835 167.849 128.832 169.7 128.805 171.544C128.706 178.319 128.52 185.089 128.358 191.864C128.278 195.252 128.202 198.642 128.144 202.031C128.122 203.302 128.104 204.573 128.088 205.844L128.07 207.521C128.06 208.262 128.041 208.994 127.95 209.735C127.89 210.222 127.763 210.686 127.494 211.104C127.302 211.4 127.03 211.55 126.764 211.752L126.714 211.79C126.375 212.057 126.018 212.059 125.682 211.79L125.585 211.713C125.264 211.463 124.987 211.268 124.782 210.872C124.498 210.322 124.452 209.724 124.404 209.118C124.33 208.199 124.379 207.267 124.388 206.345C124.407 204.496 124.433 202.647 124.465 200.798C124.585 194.018 124.821 187.237 125.251 180.469C125.453 177.281 125.728 174.083 126.097 170.908L126.167 170.313C126.278 169.379 126.38 168.428 126.495 167.474C124.781 166.271 123.274 164.812 121.988 163.156C121.894 163.034 122.049 162.863 122.164 162.981C123.477 164.337 124.983 165.419 126.65 166.269C126.923 164.272 127.298 162.286 127.998 160.435ZM156.643 99.9984C156.666 99.9802 156.703 99.9723 156.725 99.9984C157.094 100.427 157.019 101.082 157.031 101.625L157.032 101.676C157.059 102.47 157.064 103.262 157.061 104.056L157.053 106.586C157.052 106.933 157.023 107.295 157.041 107.645L157.051 107.781C157.244 107.978 157.334 108.264 157.269 108.551C157.257 108.919 157.064 109.227 156.782 109.42L157.386 110.274L157.99 111.127C159.234 112.889 160.493 114.634 161.805 116.347C163.142 118.094 164.569 119.774 166.062 121.39C166.792 122.18 167.534 122.958 168.293 123.719C168.601 124.029 168.918 124.33 169.23 124.636L169.541 124.942C169.725 125.125 169.956 125.307 170.078 125.539C170.15 125.676 170.167 126.014 170.192 126.07C170.423 126.575 170.03 127.38 169.377 127.128L169.406 127.109C169.525 127.026 169.449 127.025 169.177 127.105C169.006 127.105 168.846 127.065 168.696 126.988L168.651 126.963C168.44 126.856 168.251 126.649 168.08 126.483L168.037 126.443C167.645 126.076 167.271 125.687 166.895 125.304C166.11 124.504 165.343 123.687 164.6 122.849C163.119 121.175 161.714 119.434 160.384 117.639C159.029 115.811 157.77 113.888 156.686 111.887C156.275 111.128 155.899 110.354 155.537 109.57C154.834 109.345 154.671 108.599 154.72 107.759C154.461 107.156 154.227 106.541 154.089 105.913C154.07 105.827 154.181 105.745 154.247 105.821C154.472 106.076 154.68 106.347 154.88 106.625C155.001 106.036 155.154 105.494 155.226 105.148L155.538 103.622C153.781 103.531 151.856 104.251 150.645 105.511C150.58 105.839 150.327 106.074 150.08 106.381C149.798 106.732 149.552 107.125 149.369 107.537C148.962 108.449 149.191 109.794 148.401 110.463C148.319 110.533 148.227 110.581 148.132 110.611C148.507 112.444 148.337 114.464 148.329 116.324L148.328 116.487C148.33 118.569 148.261 120.652 148.18 122.732L148.098 124.79C147.992 127.535 147.923 130.282 148.19 133.012C149.411 131.933 150.674 130.904 151.979 129.923C152.838 129.278 153.714 128.656 154.606 128.057L155.33 127.574C156.199 126.993 157.088 126.396 158.039 125.98C159.282 125.436 160.465 125.623 161.665 126.181C162.861 126.736 164.021 127.382 165.194 127.984C166.386 128.596 167.582 129.203 168.776 129.812C169.567 130.215 170.727 130.579 171.307 131.322C171.344 131.158 171.387 130.994 171.438 130.831C171.38 130.582 171.403 130.313 171.542 130.057C173.493 126.482 175.297 122.823 177.088 119.167C177.995 117.317 178.858 115.446 179.766 113.597L180.649 111.796C180.797 111.497 180.945 111.197 181.094 110.898C181.317 110.449 181.549 110.006 181.774 109.559C181.869 109.37 181.989 109.182 182.082 108.992L182.125 108.896C182.128 108.891 182.342 108.22 182.176 108.284L182.162 108.291C182.078 108.338 182.01 108.232 182.065 108.165C182.298 107.877 182.624 108.132 182.757 108.399C183.125 109.133 182.452 110.286 182.193 110.99L182.178 111.029C181.374 113.298 180.464 115.526 179.532 117.745C177.744 122 175.823 126.189 173.906 130.386L173.884 130.459C174.292 130.146 174.729 129.862 175.102 129.586C176.045 128.89 177.015 128.227 177.984 127.567C179.76 126.357 181.585 125.226 183.44 124.14L183.811 123.923C184.737 123.385 185.655 122.948 186.755 123.11C187.777 123.26 188.726 123.807 189.649 124.252L189.745 124.298L192.597 125.65C192.292 124.437 191.962 123.23 191.617 122.028C190.946 119.683 190.207 117.357 189.405 115.052C188.656 112.899 187.847 110.769 186.991 108.656L186.733 108.021C186.384 107.151 186.037 106.203 185.04 105.935C184.043 105.667 182.9 106.064 181.989 105.497C181.906 105.446 181.916 105.31 182.016 105.284L182.579 105.143C183.634 104.881 184.872 104.618 185.87 104.872C186.956 105.15 187.855 106.059 188.382 107.005C188.968 108.056 189.381 109.233 189.825 110.354L189.896 110.531C190.406 111.8 190.897 113.077 191.367 114.361C192.306 116.929 193.161 119.528 193.934 122.15C194.307 123.414 194.661 124.684 195.001 125.957C195.099 126.323 195.26 126.766 195.392 127.229C195.544 127.377 195.688 127.542 195.822 127.729C196.045 128.041 195.885 128.406 195.608 128.592C195.597 128.911 195.526 129.21 195.356 129.467C194.694 130.47 192.943 130.212 193.014 128.864C193.025 128.657 193.106 128.46 193.228 128.294L193.224 128.267L193.21 128.217C192.906 128.072 192.601 127.91 192.28 127.752L189.286 126.276C188.42 125.849 187.459 125.189 186.495 125.026C185.596 124.874 184.648 125.542 183.876 125.945L183.825 125.971C181.959 126.925 180.106 127.911 178.26 128.906C177.359 129.391 176.47 129.897 175.572 130.388C174.822 130.799 174.012 131.388 173.168 131.62C172.808 131.9 172.38 131.862 172.036 131.651C172.193 132.622 172.184 133.619 172.232 134.611C172.297 135.939 172.307 137.27 172.328 138.599L172.337 139.097C172.393 142.035 172.424 144.975 172.435 147.913C172.475 158.379 172.359 168.847 172.332 179.312C172.318 184.57 172.214 189.833 172.077 195.089C172.019 197.316 171.897 199.54 171.766 201.764L171.694 202.977C171.541 205.536 171.451 208.124 170.976 210.649C170.914 210.978 170.355 210.986 170.301 210.649C169.864 207.943 169.839 205.179 169.755 202.441L169.737 201.894C169.636 198.955 169.588 196.018 169.599 193.078C169.636 182.609 169.909 172.146 170.132 161.679C170.244 156.421 170.32 151.16 170.494 145.903C170.581 143.272 170.68 140.644 170.797 138.014C170.849 136.84 170.9 135.668 170.978 134.495L171.013 133.993C171.037 133.665 171.057 133.342 171.081 133.021C170.019 133.408 169.048 132.691 168.092 132.201C166.991 131.636 165.891 131.07 164.79 130.506L163.687 129.944L161.481 128.821C160.488 128.315 159.723 127.812 158.663 128.405C154.847 130.541 151.339 133.383 148.161 136.365C147.552 136.937 146.264 136.783 146.109 135.825C145.45 131.73 145.851 127.576 146.188 123.469L146.312 121.944C146.462 120.123 146.626 118.301 146.844 116.487C146.942 115.676 147.039 114.865 147.147 114.055L147.23 113.448C147.364 112.488 147.452 111.534 147.738 110.613C147.648 110.584 147.561 110.536 147.483 110.463C146.621 109.647 147.037 108.232 147.43 107.261C147.818 106.304 148.411 105.468 149.152 104.748C149.314 104.591 149.542 104.49 149.771 104.485C151.569 103.297 153.542 102.704 155.595 103.352C155.652 103.077 155.711 102.803 155.773 102.529L155.836 102.255C155.996 101.575 156.055 100.453 156.643 99.9984ZM175.07 207.311C175.628 207.158 176.239 207.319 176.648 207.727C177.057 208.135 177.219 208.744 177.065 209.301C176.988 209.575 176.849 209.812 176.648 210.014C176.46 210.201 176.241 210.333 175.991 210.413L175.933 210.43L175.841 210.468C175.562 210.543 175.282 210.543 175.002 210.468C174.735 210.393 174.503 210.258 174.306 210.063C174.11 209.867 173.975 209.635 173.9 209.369C173.825 209.09 173.825 208.811 173.9 208.532L173.938 208.441C174.015 208.167 174.154 207.929 174.355 207.727C174.557 207.527 174.796 207.388 175.07 207.311ZM208.2 151.849C208.292 151.744 208.44 151.879 208.383 151.99C207.514 153.69 206.546 155.377 205.594 157.034C205.67 157.493 205.746 157.948 205.833 158.392C206.204 160.284 206.658 162.142 206.954 164.051C208.019 170.917 208.571 177.856 209.045 184.783C209.521 191.734 209.582 198.689 209.653 205.654C209.66 206.258 209.194 206.959 208.57 207.073C208.285 207.125 208.071 207.115 207.786 207.073C207.137 206.978 206.731 206.236 206.703 205.654C206.517 201.761 206.266 197.874 205.976 193.987C205.462 187.096 205.148 180.187 204.732 173.29L204.586 170.879C204.429 168.267 204.286 165.653 204.239 163.036C204.208 161.303 204.301 159.57 204.243 157.839C204.191 156.241 204.028 154.503 204.382 152.933C204.395 152.874 204.488 152.859 204.515 152.915C204.882 153.687 205.115 154.525 205.294 155.381C206.241 154.187 207.205 152.99 208.2 151.849ZM146.196 109.629C146.329 109.619 146.324 109.819 146.196 109.833C144.339 110.048 142.544 110.802 140.79 111.443L140.64 111.498C138.868 112.139 137.14 112.885 135.477 113.774C132.227 115.512 129.242 117.754 126.602 120.319C116.065 130.561 111.263 145.331 107.744 159.211C105.789 166.922 104.399 174.764 103.498 182.666C103.052 186.574 102.737 190.497 102.554 194.426C102.46 196.44 102.4 198.455 102.376 200.471C102.363 201.503 102.359 202.536 102.36 203.568C102.361 204.042 102.446 204.637 102.319 205.097C102.201 205.522 101.869 205.897 101.624 206.251C101.333 206.672 100.81 206.65 100.515 206.251L100.407 206.106C100.092 205.69 99.7843 205.292 99.7393 204.748C99.6912 204.165 99.7252 203.564 99.723 202.978C99.718 201.798 99.7326 200.618 99.7563 199.438C99.8019 197.177 99.8912 194.916 100.024 192.658C100.294 188.076 100.737 183.503 101.373 178.957C102.502 170.876 104.194 162.873 106.412 155.019C108.503 147.611 110.981 140.224 114.511 133.362C117.789 126.991 122.089 121.063 127.763 116.61C130.401 114.54 133.273 112.814 136.37 111.514C137.932 110.859 139.572 110.324 141.24 110.018C142.889 109.717 144.532 109.759 146.196 109.629ZM175.39 194.216C175.685 194.214 176.013 194.278 176.266 194.441L176.604 194.701C176.695 194.819 176.786 194.936 176.877 195.054C177.088 195.329 177.116 195.773 177.072 196.1C177.062 196.318 176.997 196.522 176.877 196.71L176.62 197.042C176.373 197.243 176.167 197.386 175.868 197.483C175.711 197.534 175.56 197.544 175.41 197.536L175.36 197.533L175.39 197.537L175.338 197.531C175.289 197.527 175.24 197.522 175.191 197.515C175.157 197.511 175.123 197.509 175.09 197.504C175.058 197.501 175.027 197.5 174.994 197.503C174.614 197.539 174.231 197.324 173.961 197.076C173.718 196.854 173.5 196.381 173.534 196.046L173.548 195.906C173.574 195.67 173.595 195.577 173.695 195.34C173.793 195.109 173.929 194.906 174.114 194.734C174.469 194.405 174.903 194.219 175.39 194.216ZM174.213 176.939C174.718 176.39 175.585 176.35 176.211 176.682C176.363 176.763 176.503 176.893 176.638 177.001C176.977 177.275 177.11 177.767 177.128 178.183C177.147 178.593 176.93 179.081 176.638 179.365L176.567 179.433C176.393 179.602 176.143 179.749 175.899 179.794C175.505 179.866 175.174 179.864 174.808 179.71C174.493 179.577 174.222 179.364 174.037 179.075L174.007 179.026C173.994 179.006 173.982 178.985 173.971 178.964L173.955 178.932C173.604 178.259 173.698 177.498 174.213 176.939ZM174.474 159.571C174.702 159.5 174.93 159.49 175.157 159.541C175.312 159.541 175.456 159.58 175.589 159.657C175.735 159.698 175.861 159.771 175.967 159.877C176.096 159.953 176.198 160.055 176.275 160.183C176.426 160.349 176.528 160.542 176.581 160.764L176.642 161.219L176.581 161.673L176.408 162.081C176.361 162.143 176.313 162.205 176.265 162.266C176.189 162.395 176.086 162.497 175.957 162.573C175.873 162.657 175.777 162.719 175.669 162.762C175.288 163.035 174.78 163.124 174.328 162.999C174.06 162.925 173.827 162.789 173.629 162.593C173.433 162.396 173.297 162.164 173.222 161.896L173.191 161.683C173.151 161.396 173.145 161.237 173.226 160.873C173.262 160.713 173.366 160.487 173.42 160.392C173.651 159.986 174.03 159.707 174.474 159.571ZM194.245 147.076C194.899 147.072 195.552 147.073 196.206 147.08L196.696 147.087C197.517 147.1 198.221 147.015 198.866 147.583C199.334 147.996 199.128 148.688 198.683 148.998C198.01 149.469 197.165 149.232 196.39 149.18C195.573 149.126 194.756 149.08 193.938 149.044C192.355 148.973 190.771 148.928 189.186 148.921C187.605 148.914 186.021 148.929 184.44 148.955C182.831 148.981 181.156 149.13 179.556 148.964C179.336 148.941 179.287 148.653 179.504 148.578C181.011 148.058 182.707 147.889 184.287 147.69C185.917 147.485 187.546 147.34 189.186 147.245C190.871 147.149 192.558 147.088 194.245 147.076ZM174.471 141.966L174.525 141.968C174.813 141.968 175.082 142.036 175.333 142.17L175.387 142.2L175.733 142.466C175.944 142.679 176.09 142.929 176.171 143.218L176.232 143.67C176.241 143.905 176.192 144.123 176.086 144.326C176.017 144.538 175.899 144.72 175.733 144.874C175.578 145.04 175.395 145.158 175.183 145.227C174.995 145.325 174.794 145.374 174.579 145.374L174.525 145.373C174.217 145.372 173.93 145.295 173.664 145.141L173.318 144.874C173.107 144.662 172.96 144.411 172.879 144.123L172.818 143.67C172.809 143.436 172.858 143.217 172.965 143.014C173.034 142.803 173.152 142.62 173.318 142.466C173.473 142.3 173.656 142.183 173.868 142.114C174.056 142.016 174.257 141.966 174.471 141.966ZM179.532 101.963C179.9 101.431 180.567 101.904 180.471 102.331C180.497 103.531 180.558 104.696 180.832 105.871C180.957 106.409 181.121 106.948 181.374 107.441L181.481 107.648C181.809 108.294 182.063 108.904 181.622 109.612C181.413 109.946 181.037 110.197 180.63 110.18C178.822 110.102 178.574 107.592 178.464 106.191C178.351 104.748 178.703 103.162 179.532 101.963Z" fill="black"/>
<path fill-rule="evenodd" clip-rule="evenodd" d="M191.977 53.9612C187.299 47.5391 178.687 45.6923 171.218 47.2542C156.617 49.9093 142.666 61.0218 140.086 76.1345C136.061 85.2774 138.632 99.6784 150.338 100.754C152.004 100.848 153.655 100.465 155.325 100.672C165.514 102.296 177.555 109.246 186.575 101.049C187.027 101.372 187.623 101.529 188.129 101.333C191.969 99.8532 192.149 95.5718 192.476 92.0524C192.899 87.505 193.296 82.955 193.666 78.4032C193.798 70.5534 196.917 60.7442 191.977 53.9612Z" fill="white"/>
<path fill-rule="evenodd" clip-rule="evenodd" d="M163.668 37.5966C169.816 37.2706 181.143 40.0794 186.506 43.3724C195.244 48.7377 195.922 59.4404 195.565 61.291C195.43 61.9973 194.997 62.6509 194.32 62.4337C194.894 67.296 194.849 70.0751 194.946 74.9656L195.012 78.2305C195.055 80.4073 195.092 82.5842 195.101 84.7617C195.322 84.6796 195.54 84.7804 195.621 84.9917C195.641 85.0429 195.571 85.0708 195.537 85.0413C195.148 84.7027 195.425 85.4743 195.559 85.6313C195.744 85.8471 196.052 86.0505 196.269 86.2352L196.856 86.7426L197.444 87.249C198.203 87.9022 198.937 88.5568 199.645 89.2604L199.837 89.4536C201.128 90.7608 202.745 92.0259 203.548 93.7168C204.315 95.3312 204.078 97.1616 202.804 98.4487C202.34 98.916 201.798 99.2732 201.21 99.5434C202.257 101.264 202.41 103.538 201.317 105.308C200.223 107.084 198.119 108.014 196.093 107.871C196.031 108.124 195.934 108.371 195.806 108.605C195.003 110.078 193.405 110.269 191.889 110.191L191.83 110.187C188.418 109.992 185.136 109.139 182.148 107.483C181.111 107.553 180.187 106.703 179.985 105.772C179.44 105.752 178.892 105.707 178.333 105.643C176.676 105.452 174.976 105.097 173.515 104.257C173.291 104.128 173.395 103.788 173.644 103.782C175.425 103.741 177.207 103.864 178.984 103.671C180.615 103.496 182.353 103.047 183.874 102.437C186.607 101.338 188.951 99.4735 190.244 96.8899C191.919 93.5458 191.766 89.5297 191.948 85.8968C192.15 81.8755 192.398 77.8579 192.664 73.8408L192.793 71.9152C193.05 68.1619 193.264 66.154 193.917 62.2583C191.948 62.4337 183.77 59.4974 181.227 54.6943C176.4 64.9121 151.944 60.7303 150.859 76.4606C150.85 76.594 150.638 76.5569 150.631 76.4294L150.61 76.0709C150.601 75.8938 150.592 75.7194 150.586 75.5465L150.581 75.3739L150.196 75.3785C150.196 75.4265 150.128 75.4437 150.111 75.3925C149.748 74.3661 148.021 74.6968 147.269 74.9407C146.592 75.161 145.954 75.4995 145.381 75.9172C144.231 76.7556 143.339 77.8843 143.043 79.2954C142.482 81.9751 144.192 84.7044 146.463 85.9977C147.895 86.8128 149.463 87.3391 150.836 88.2628C152.048 89.0779 153.178 90.0327 154.157 91.1179C158.036 95.4168 160.317 101.937 158.482 107.612C158.342 108.045 157.972 108.54 157.482 108.61C156.671 108.726 155.86 108.608 155.405 107.838C155.228 107.537 155.144 107.194 155.163 106.856C154.848 107.933 153.829 108.998 152.889 109.399C151.608 109.945 150.165 109.782 149.035 109.077L148.893 109.183C147.055 110.532 145.002 111.761 142.648 111.513C140.942 111.333 139.268 110.467 138.325 109.101C137.07 109.804 135.73 110.364 134.348 110.746L134.201 110.786C132.3 111.303 129.874 111.776 128.099 110.727C126.395 109.72 125.829 107.52 126.229 105.683C126.277 105.465 126.338 105.252 126.412 105.045C125.13 105.114 123.849 104.991 122.632 104.615C121.389 104.232 120.203 103.494 119.607 102.299C118.934 100.947 119.113 99.4098 119.614 98.0328C120.416 95.8234 121.704 93.8579 123.309 92.1456C124.852 90.4976 126.713 89.0995 128.648 87.934L128.974 87.7393C130.715 86.7033 132.815 85.4893 134.873 85.5692C134.866 85.5428 134.862 85.5178 134.859 85.4916C134.547 83.2047 134.583 80.8729 134.51 78.5674C134.443 76.4467 134.367 74.3259 134.317 72.2036C134.236 68.5954 134.263 64.972 134.734 61.3888C135.153 58.2093 135.906 55.1088 137.28 52.1978C138.723 49.1395 140.896 46.5298 143.579 44.4773C149.21 40.1691 156.647 37.9692 163.668 37.5966ZM144.542 79.9754C145.155 78.8219 146.551 78.4586 147.776 78.6667C149.493 78.9585 150.66 80.4553 151.662 81.7424C152.714 83.0913 150.52 84.3628 149.955 83.0558L149.821 82.747C149.368 81.7104 148.832 80.6173 147.907 79.9413C146.923 79.224 145.535 79.1185 144.667 80.0717C144.604 80.1416 144.5 80.0515 144.542 79.9754Z" fill="black"/>
<path fill-rule="evenodd" clip-rule="evenodd" d="M178.555 94.2261C177.509 93.8003 176.576 93.0901 175.893 92.1829C175.656 91.8675 175.594 91.5345 175.644 91.2299C175.7 90.8874 175.903 90.5769 176.18 90.3687C176.458 90.1598 176.806 90.0568 177.142 90.1093C177.434 90.155 177.725 90.3145 177.955 90.6452L178.003 90.7114C178.409 91.2589 178.937 91.7082 179.54 91.9978C180.12 92.2769 180.77 92.4072 181.442 92.3314C182.722 92.1872 183.604 91.4967 184.541 90.559C184.658 90.4407 184.774 90.3186 184.891 90.1945C184.965 90.082 185.067 90.0098 185.181 89.9718C185.307 89.9297 185.45 89.9321 185.581 89.9777C185.707 90.0216 185.82 90.1048 185.895 90.2156C185.967 90.3209 186.008 90.451 185.995 90.6006C185.909 91.5723 185.4 92.4395 184.676 93.1205C183.873 93.8768 182.808 94.4 181.805 94.5835C180.7 94.7857 179.575 94.6408 178.555 94.2261ZM182.326 79.2351C183.501 79.9477 185.292 81.6094 184.028 83.376C182.54 84.9337 180.397 83.1477 179.341 82.34C178.362 81.7139 177.262 83.324 178.17 84.055C185.8 89.6898 188.896 79.4214 182.921 78.3972C182.263 78.2844 182.018 79.0146 182.326 79.2351ZM168.654 72.6803C168.783 71.0724 171.238 70.7073 171.482 72.2983C171.701 73.7236 171.444 75.0328 170.8 76.3159C170.185 77.5418 168.64 76.9699 168.523 75.8536C168.366 74.3573 168.573 73.6804 168.654 72.6803ZM187.339 71.9685C187.682 71.5213 188.176 71.2161 188.768 71.3886C190.618 71.9278 190.072 74.5473 189.423 75.8224C189.07 76.5148 187.929 76.6904 187.413 76.0807C186.573 75.0865 186.17 73.101 187.239 72.1217C187.268 72.0711 187.3 72.02 187.339 71.9685ZM170.774 65.6449L171.066 65.5939C171.97 65.438 173.094 65.2881 173.733 66.013C174.072 66.3974 174.189 67.1119 173.733 67.4798C172.932 68.1272 172.045 67.8763 171.084 67.9311C170.292 67.9765 169.531 68.1072 168.768 68.3247C167.095 68.8018 165.732 69.6728 164.302 70.6291C164.115 70.7545 163.923 70.5153 164.013 70.3403C164.838 68.7284 166.437 67.4042 168.038 66.5971C168.893 66.1663 169.828 65.8089 170.774 65.6449ZM185.653 64.9228L185.877 64.9685C188.311 65.4759 191.473 66.4896 192.625 68.8742C192.669 69.2114 192.623 69.2837 192.585 69.3309L192.572 69.3466C192.541 69.3869 192.516 69.4425 192.37 69.4884C192.329 69.4787 192.288 69.4685 192.247 69.4576C191.718 69.3195 191.3 69.1293 190.896 68.9319L190.457 68.7162C189.948 68.4673 189.435 68.2274 188.89 68.0503C187.729 67.6724 186.534 67.4062 185.321 67.2641C185.058 67.2333 184.805 67.1448 184.606 66.9931C184.416 66.8491 184.271 66.6497 184.205 66.3847C184.119 66.0417 184.144 65.7821 184.329 65.4727C184.467 65.2403 184.666 65.0793 184.894 64.9868C185.126 64.8925 185.39 64.8703 185.653 64.9228Z" fill="black"/>
<path fill-rule="evenodd" clip-rule="evenodd" d="M262.961 210.646C250.332 210.681 242.767 210.534 228.481 210.328C211.946 209.891 207.49 210.676 198.227 208.862C196.811 208.561 195.734 208.107 194.641 207.473C194.249 207.915 193.585 208.571 192.954 208.137C191.793 207.371 192.325 204.696 192.037 203.185C191.56 189.882 190.797 176.183 193.405 163.041C191.824 162.529 182.561 158.728 182.056 157.454C190.432 135.606 208.807 110.038 232.983 111.001C233.469 111.599 233.902 112.484 234.441 113.093C237.728 111.865 242.291 110.635 242.516 105.908C243.085 102.753 243.496 99.8071 243.77 96.9077C243.819 96.5761 244.218 96.4621 244.463 96.3208C244.567 95.5711 244.806 94.8048 245.325 94.2908C249.562 93.911 259.234 95.654 261.772 96.3722C265.234 96.9633 264.874 100.67 265.519 103.48C266.542 106.954 267.254 110.559 268.773 113.953C269.117 114 270.08 114.167 270.435 114.229C270.453 113.845 270.273 112.703 270.626 112.47C271.281 111.814 271.432 113.063 271.578 113.47C285.886 110.775 295.242 122.886 298.377 136.415C300.648 143.218 303.656 150.104 307.584 157.488C310.047 162.073 302.971 162.925 300.004 164.755C303.065 176.635 303.434 188.735 303.936 200.709C304.069 202.551 304.249 205.056 303.595 205.973C303.285 206.213 303.069 206.206 302.754 206.224C302.147 206.878 301.106 206.834 300.229 207.021C297.458 207.524 294.617 207.859 291.949 207.91C284.459 212.534 272.912 209.949 262.961 210.646Z" fill="white"/>
<path fill-rule="evenodd" clip-rule="evenodd" d="M242.728 96.8986C243.121 94.9339 246.372 95.3891 246.224 97.3706C244.583 104.745 245.582 113.722 235.21 112.996C241.794 124.549 262.127 131.576 268.699 116.408C265.46 116.022 264.82 108.386 264.429 105.714L264.413 105.475C264.326 104.101 264.355 102.827 265.183 101.652C266.01 102.269 266.342 103.387 266.621 104.406L266.826 105.222C267.511 107.942 268.228 110.65 269.315 113.247L269.354 113.253C269.299 111.492 271.566 110.687 272.127 112.573C287.46 110.467 295.848 123.089 299.157 136.289C301.57 143.515 304.717 150.467 308.291 157.186C310.989 162.437 304.438 163.639 300.973 165.385C303.638 176.036 304.161 187.07 304.655 197.993C304.492 200.325 305.548 205.107 304.137 206.779C302.047 208.41 300.921 205.614 301.243 203.821C301.543 191.146 300.22 178.527 299.84 165.872C297.224 166.974 294.576 167.99 291.898 168.934C292.035 180.809 293.45 192.684 293.955 204.499C294.618 205.02 294.983 205.922 294.418 206.709C291.389 210.923 285.912 211.553 281.093 211.613C269.626 211.756 258.146 211.712 246.678 211.678C235.413 211.423 224.05 212.143 212.844 210.855C210.648 212.5 210.199 208.954 210.493 207.441L210.605 204.41C210.68 202.39 210.759 200.37 210.862 198.351L211.117 193.428C211.545 185.225 211.998 177.025 212.716 168.837C206.207 167.949 199.792 166.374 193.58 164.247C194.092 178.461 193.043 192.828 194.792 206.969C195.946 208.532 193.631 209.998 192.28 209.02C190.605 207.745 191.323 205.252 190.989 203.417L190.946 202.231C190.477 189.439 189.836 176.378 192.226 163.762L191.198 163.364C188.064 162.143 180.004 158.879 181.061 157.269C189.475 135.275 208.298 108.97 233.227 110.22C233.858 110.657 234.181 111.509 234.649 112.119L235.391 111.851C238.263 110.802 241.382 109.472 241.467 105.946C242.011 102.941 242.443 99.9348 242.728 96.8986ZM283.81 151.718C287.381 146.736 262.614 154.61 260.853 155.13L260.19 155.371C249.342 159.305 237.647 163.109 228.998 170.95C228.816 171.149 229.042 171.423 229.277 171.312L229.307 171.294C229.652 171.103 231.142 170.572 230.086 170.773C242.584 162.911 257.104 158.592 271.292 154.815C273.354 154.317 275.426 153.86 277.506 153.444C279.604 152.935 281.971 152.941 283.81 151.718ZM244.673 150.097C244.979 148.855 247.031 137.441 243.622 140.572C242.713 142.215 242.364 144.118 242.201 145.967C241.761 148.123 242.871 150.447 241.792 152.434C240.826 155.031 237.275 158.063 237.038 153.24C242.847 153.042 241.103 145.7 237.148 147.97C234.983 149.819 234.608 153.3 235.692 155.851C233.941 153.95 231.103 153.944 229.076 152.509C225.417 148.563 231.563 144.457 234.91 143.036C235.099 142.829 237.843 141.875 237.261 141.76C234.634 141.784 232.001 142.342 229.733 143.72C225.04 146.004 223.443 153.075 228.811 155.553C229.972 156.111 231.243 156.411 232.392 156.987C235.289 158.485 234.353 160.367 231.363 160.422C230.133 160.69 226.074 159.567 226.529 161.717C227.263 163.062 228.862 163.262 230.262 163.299C234.005 163.555 238.66 161.446 236.545 157.054C239.098 159.224 242.287 156.19 243.381 153.832C244.715 156.441 248.067 155.655 249.959 154.111C252.85 156.382 256.477 153.858 257.765 151.039C257.791 151.626 257.818 152.212 257.846 152.799C257.904 154.001 259.772 154.387 260.048 153.096C260.468 151.134 261.047 149.193 261.843 147.349C263.675 142.5 264.796 144.686 264.859 148.486C265.085 149.912 265.801 151.191 267.382 151.287C267.823 151.314 268.397 150.923 268.466 150.464L268.557 149.856C268.75 148.583 268.973 147.272 269.455 146.075C269.919 150.035 275.118 150.016 276.567 146.733C279.575 148.533 282.73 146.018 284.132 143.417L284.174 143.338C284.664 142.449 283.419 141.373 282.707 142.209L282.46 142.466C281.118 143.852 278.982 145.861 277.217 144.15C277.276 143.378 277.253 142.589 277.205 141.83C277.148 140.925 275.895 140.119 275.183 140.929C274.179 140.078 272.931 140.201 271.881 140.794C269.161 141.561 267.447 144.203 266.857 146.828C266.794 144.731 266.106 142.454 263.796 142.257C261.429 142.237 260.523 144.877 259.715 146.653C259.668 145.858 259.623 145.062 259.583 144.266C259.513 142.897 257.609 142.911 257.453 144.226L257.449 144.266C257.149 147.107 255.572 153.912 251.591 152.58C253.27 150.736 256.306 145.116 253.42 143.366C248.978 142.251 246.699 149.24 248.593 152.493L248.495 152.562C247.413 153.306 245.625 154.135 245.02 152.466L244.952 152.312C244.642 151.606 244.368 150.842 244.673 150.097ZM238.319 149.309C239.16 148.819 239.459 150.441 239.245 150.985C238.901 151.859 237.963 152.345 237.028 152.678L237.031 152.579C237.072 151.582 237.405 149.842 238.319 149.309ZM252.476 145.261C252.495 145.378 252.464 145.52 252.46 145.629C252.317 147.541 251.464 149.376 250.278 150.868C249.596 148.841 250.475 146.163 252.476 145.261ZM272.697 142.87C273.242 142.727 273.819 142.767 274.381 142.919C274.34 143.556 274.479 144.193 274.757 144.778C273.307 149.123 269.897 145.778 272.697 142.87Z" fill="black"/>
<path fill-rule="evenodd" clip-rule="evenodd" d="M271.142 50.7233C260.906 42.4242 244.502 39.7295 233.545 48.1024C225.031 55.9601 221.508 78.2892 223.015 89.5096C223.434 96.7062 228.946 104.863 237.036 102.587C238.41 102.452 239.744 101.927 241.131 101.817C242.79 101.626 244.461 101.623 246.116 101.856C249.723 102.365 252.921 104.276 256.421 105.169C262.917 106.826 270.165 105.711 275.757 101.978C294.235 89.8598 285.865 62.4525 271.142 50.7233Z" fill="white"/>
<path fill-rule="evenodd" clip-rule="evenodd" d="M269.778 105.368C269.968 105.303 270.158 105.235 270.346 105.165C270.359 105.208 270.379 105.25 270.403 105.291C270.429 105.356 270.456 105.419 270.485 105.483C270.249 105.485 270.012 105.443 269.778 105.368ZM269.399 24.9448C269.315 24.7571 269.218 24.577 269.109 24.403C269.374 24.4886 269.638 24.6065 269.878 24.7587C269.716 24.813 269.557 24.8751 269.399 24.9448ZM228.967 49.4995C228.956 49.4977 228.945 49.4961 228.934 49.4942C229.073 49.1255 229.32 48.7774 229.594 48.5261C229.643 48.4809 229.696 48.4391 229.747 48.396C229.457 48.7405 229.194 49.108 228.967 49.4995ZM302.947 88.056C302.81 86.7612 302.636 85.4712 302.41 84.1887C302.194 82.9608 302.012 81.6474 301.385 80.5575C300.762 79.4723 300.138 78.418 299.397 77.4634C299.503 76.9759 299.643 76.5179 299.764 76.1484C300.465 74.0214 301.154 71.3201 299.699 69.3437C299.361 68.8857 298.949 68.5349 298.477 68.2181C298.276 68.0831 297.944 67.9604 297.789 67.7741C297.68 67.6422 297.718 67.7136 297.713 67.6484C297.687 67.2975 298.512 66.557 298.704 66.2791C299.066 65.765 299.335 65.1861 299.54 64.5946C300.353 62.2534 299.8 59.6747 299.312 57.3287C299.053 56.0853 298.768 54.8386 298.675 53.5686C298.588 52.3763 298.751 51.2119 298.848 50.0258C298.941 48.8551 298.916 47.6474 298.413 46.5636C298.168 46.0357 297.796 45.57 297.343 45.2067C296.901 44.8513 296.35 44.6448 295.919 44.2908C295.489 43.9383 295.612 43.4618 295.724 42.9743C295.878 42.3129 296.073 41.6562 296.091 40.9731C296.126 39.7823 295.639 38.6225 294.878 37.7222C294.093 36.7922 292.973 36.1633 291.762 36.022C291.208 35.9568 290.663 36.0672 290.112 36.0284C289.567 35.9911 289.449 35.7194 289.346 35.2226C289.11 34.0846 289.206 32.9606 288.644 31.8987C288.146 30.9548 287.261 30.315 286.282 29.9379C284.488 29.2454 282.4 29.3883 280.508 29.7964C279.391 26.5177 275.903 24.3675 272.471 24.3411C271.935 23.4344 271.028 22.7575 269.993 22.3599C268.281 21.7001 266.468 22.0853 264.685 22.0853H264.677C264.498 22.0742 264.319 22.0697 264.14 22.0713C263.972 22.0618 263.804 22.0479 263.636 22.0294C261.606 21.7901 259.598 20.9611 257.588 21.7732C256.691 22.1349 255.978 22.6923 255.527 23.4033C254.847 23.5879 254.176 23.7992 253.518 24.0445C250.665 24.1189 247.839 25.645 246.396 28.1183C244.365 27.8886 242.161 28.2782 240.818 29.9332C240.468 30.3639 240.197 30.8698 240.018 31.407C238.648 31.8489 237.381 32.6361 236.551 33.8219C235.795 34.904 235.649 36.3032 236.161 37.4648C234.938 38.3483 233.983 39.6131 233.523 41.1066C233.243 42.0141 233.201 42.9516 233.381 43.8448C232.13 44.1218 230.932 44.6352 229.872 45.4057C228.76 46.2128 227.371 47.4976 227.298 48.9762C227.293 49.0847 227.297 49.1932 227.306 49.3014C224.858 49.1299 222.363 49.5435 220.709 51.5007C219.467 52.9692 218.927 54.8603 219.258 56.5821C216.346 57.172 213.593 58.6904 211.673 60.9353C210.277 62.567 209.036 64.6412 209.111 66.8626C209.134 67.5319 209.291 68.2057 209.564 68.8283V68.8297C209.447 69.0487 209.327 69.2925 209.212 69.5518C207.408 70.8107 206.098 72.7841 205.36 74.9592C204.764 76.7211 204.389 79.0097 205.025 80.8028C205.122 81.076 205.245 81.3338 205.388 81.5727C205.268 81.7002 205.155 81.8275 205.044 81.9563C203.829 83.3736 202.598 85.159 202.682 87.1105C202.716 87.8962 203.008 88.6865 203.486 89.3353C201.805 91.0354 200.451 93.181 200.585 95.5765C200.7 97.6615 201.848 99.7792 203.645 100.781C203.345 102.387 203.746 104.083 205 105.337C205.626 105.964 206.364 106.377 207.145 106.598C207.32 108.49 209.003 110.013 210.792 110.451C211.125 110.533 211.458 110.583 211.789 110.606C213.398 111.393 215.317 111.303 216.959 110.581C217.443 111.195 218.074 111.695 218.808 112.053C219.106 112.199 219.42 112.32 219.748 112.418C222.067 113.103 224.446 112.174 226.473 111.091C226.539 111.057 226.658 111.013 226.764 110.965C227.044 111.277 227.555 111.586 227.821 111.738C228.724 112.255 229.827 112.496 230.864 112.427C232.079 112.347 233.152 111.946 234.144 111.376C234.289 111.401 234.436 111.415 234.582 111.423C235.516 111.473 236.348 111.178 237.097 110.712C237.592 110.777 238.099 110.771 238.613 110.681C239.744 110.968 240.846 110.512 241.732 109.787C242.124 109.465 242.455 109.088 242.81 108.728C243.179 108.354 243.459 108.267 243.89 108.015C244.91 107.421 245.033 105.913 244.591 104.823C244.675 104.632 244.723 104.42 244.723 104.184C244.72 102.125 243.769 100.237 242.602 98.5899C242.08 97.8556 241.514 97.1366 240.893 96.4847C240.393 95.9614 239.691 95.1123 238.952 94.8995C238.907 94.867 238.86 94.8343 238.813 94.8034C238.957 94.3033 239.041 93.7942 239.005 93.2741C238.968 92.7399 238.795 92.2338 238.518 91.8023C239.447 90.0061 239.839 88.036 239.653 85.9804C240.409 84.9106 240.982 83.7293 241.277 82.4345C241.459 81.6334 241.564 80.7904 241.55 79.969C241.543 79.5748 241.399 79.0763 241.396 78.6681C241.417 78.797 241.585 78.3157 241.651 78.196C242.401 76.8066 243.364 75.723 243.525 74.0851C243.618 73.127 243.391 72.0684 242.815 71.2828C243.184 69.8328 243.179 68.2754 242.599 66.8923C242.443 66.5228 242.264 66.1611 242.059 65.818C242.153 65.5292 242.241 65.2373 242.353 64.9748C242.396 64.8708 242.44 64.7654 242.483 64.6598C242.905 64.2886 243.297 63.8835 243.627 63.4859C244.359 62.6058 244.918 61.5967 244.988 60.4337C245.022 59.8515 244.885 59.2942 244.715 58.7416C244.64 58.4917 244.595 58.2138 244.507 57.97C244.457 57.8348 244.337 57.6968 244.295 57.5695C244.286 57.5415 244.278 57.5182 244.272 57.4996C244.278 57.481 244.283 57.4422 244.283 57.369C244.284 56.8117 244.357 56.2668 244.36 55.7297C244.872 56.2452 245.489 56.63 246.189 56.8553C247.601 57.3071 249.073 57.1022 250.323 56.4051C251.667 57.3242 253.179 58.1562 254.763 58.4901C255.704 58.6887 256.648 58.6065 257.592 58.7292C258.531 58.8518 259.438 59.2602 260.322 59.5784C262.289 60.2879 264.252 61.0159 266.225 61.7069C267.819 62.2643 269.543 62.7067 271.212 62.3931C271.68 63.1133 272.289 63.7221 273.069 64.1692C273.627 64.4875 274.24 64.7031 274.874 64.8104C275.434 64.9051 276.091 64.8678 276.545 65.2513C276.989 65.6239 277.266 66.1795 277.664 66.5989C278.108 67.0677 278.656 67.4745 279.23 67.7664C279.691 68.0008 280.161 68.1699 280.639 68.2802C280.597 69.3406 280.556 70.3994 280.544 71.4613C280.52 73.7684 280.53 76.0753 280.499 78.3824C280.467 80.6816 280.394 82.981 280.273 85.2771C280.158 87.432 279.996 89.5945 279.481 91.6968C277.772 98.6722 271.371 103.667 264.205 103.921C262.078 103.997 259.972 103.699 257.938 103.075C255.831 102.428 253.949 101.096 251.789 100.686C251.224 100.58 250.691 101.147 251.015 101.692C251.573 102.628 252.249 103.199 253.175 103.763C254.145 104.351 255.225 104.788 256.291 105.169C258.252 105.871 260.327 106.278 262.408 106.391C263.995 106.478 265.589 106.37 267.144 106.071C267.253 106.405 267.446 106.73 267.592 107.039C267.614 107.084 267.687 107.053 267.673 107.006C267.649 106.928 267.634 106.86 267.628 106.804C268.15 107.484 268.958 107.955 269.788 108.183C270.373 108.344 270.994 108.394 271.596 108.326C271.791 108.304 271.976 108.271 272.16 108.231C272.773 108.767 273.557 109.124 274.345 109.302C274.209 110.122 274.615 111.016 275.557 111.249C275.952 111.347 276.332 111.348 276.712 111.313C277.019 111.456 277.349 111.567 277.699 111.643C278.155 111.743 278.699 111.615 279.043 111.286C279.232 111.418 279.407 111.51 279.582 111.719C280.299 112.583 281.846 111.895 281.915 110.897C282.142 110.897 282.371 110.9 282.6 110.908C282.654 110.932 282.708 110.957 282.764 110.984C283.765 111.448 284.802 111.853 285.908 111.488C286.112 111.421 286.299 111.336 286.469 111.237C287.248 111.307 288.017 111.308 288.808 111.053C289.275 110.903 289.714 110.664 290.079 110.35C291.299 110.707 292.587 110.869 293.801 110.426C294.709 110.096 295.441 109.574 295.956 108.886C296.744 108.914 297.543 108.725 298.264 108.351C299.497 107.714 300.36 106.504 300.963 105.292C302.289 102.617 303.073 99.7434 303.381 96.7797C303.685 93.861 303.252 90.9578 302.947 88.056Z" fill="black"/>
<path fill-rule="evenodd" clip-rule="evenodd" d="M265.255 94.2261C264.209 93.8003 263.276 93.0901 262.593 92.1829C262.356 91.8675 262.294 91.5345 262.344 91.2299C262.4 90.8874 262.603 90.5769 262.88 90.3687C263.158 90.1598 263.506 90.0568 263.842 90.1093C264.134 90.155 264.425 90.3145 264.655 90.6452L264.703 90.7114C265.108 91.2589 265.637 91.7082 266.24 91.9978C266.82 92.2769 267.47 92.4072 268.142 92.3314C269.422 92.1872 270.304 91.4967 271.241 90.559C271.358 90.4407 271.474 90.3186 271.591 90.1945C271.665 90.082 271.767 90.0098 271.881 89.9718C272.007 89.9297 272.15 89.9321 272.281 89.9777C272.407 90.0216 272.52 90.1048 272.595 90.2156C272.667 90.3209 272.708 90.451 272.695 90.6006C272.609 91.5723 272.1 92.4395 271.376 93.1205C270.573 93.8768 269.508 94.4 268.505 94.5835C267.4 94.7857 266.275 94.6408 265.255 94.2261ZM269.026 79.2351C270.201 79.9477 271.992 81.6094 270.728 83.376C269.24 84.9337 267.097 83.1477 266.041 82.34C265.062 81.7139 263.962 83.324 264.87 84.055C272.5 89.6898 275.596 79.4214 269.62 78.3972C268.963 78.2844 268.718 79.0146 269.026 79.2351ZM255.353 72.6803C255.483 71.0724 257.938 70.7073 258.182 72.2983C258.401 73.7236 258.144 75.0328 257.5 76.3159C256.885 77.5418 255.34 76.9699 255.223 75.8536C255.066 74.3573 255.273 73.6804 255.353 72.6803ZM274.039 71.9685C274.382 71.5213 274.876 71.2161 275.468 71.3886C277.318 71.9278 276.772 74.5473 276.123 75.8224C275.77 76.5148 274.629 76.6904 274.113 76.0807C273.273 75.0865 272.87 73.101 273.939 72.1217C273.968 72.0711 274 72.02 274.039 71.9685ZM257.474 65.6449L257.766 65.5939C258.67 65.438 259.794 65.2881 260.433 66.013C260.772 66.3974 260.889 67.1119 260.433 67.4798C259.631 68.1272 258.745 67.8763 257.784 67.9311C256.992 67.9765 256.231 68.1072 255.468 68.3247C253.795 68.8018 252.432 69.6728 251.002 70.6291C250.815 70.7545 250.623 70.5153 250.713 70.3403C251.538 68.7284 253.137 67.4042 254.738 66.5971C255.593 66.1663 256.528 65.8089 257.474 65.6449ZM272.353 64.9228L272.577 64.9685C275.011 65.4759 278.173 66.4896 279.325 68.8742C279.369 69.2114 279.323 69.2837 279.285 69.3309L279.272 69.3466C279.241 69.3869 279.216 69.4425 279.07 69.4884C279.029 69.4787 278.988 69.4685 278.947 69.4576C278.418 69.3195 278 69.1293 277.596 68.9319L277.157 68.7162C276.648 68.4673 276.134 68.2274 275.59 68.0503C274.429 67.6724 273.234 67.4062 272.021 67.2641C271.758 67.2333 271.505 67.1448 271.305 66.9931C271.116 66.8491 270.971 66.6497 270.905 66.3847C270.819 66.0417 270.844 65.7821 271.028 65.4727C271.167 65.2403 271.366 65.0793 271.594 64.9868C271.826 64.8925 272.09 64.8703 272.353 64.9228Z" fill="black"/>
</svg>
